<?xml version="1.0" encoding="UTF-8" standalone="no"?>
<!-- Generator: Adobe Illustrator 19.2.1, SVG Export Plug-In . SVG Version: 6.00 Build 0)  -->

<svg
   xmlns:dc="http://purl.org/dc/elements/1.1/"
   xmlns:cc="http://creativecommons.org/ns#"
   xmlns:rdf="http://www.w3.org/1999/02/22-rdf-syntax-ns#"
   xmlns:svg="http://www.w3.org/2000/svg"
   xmlns="http://www.w3.org/2000/svg"
   xmlns:sodipodi="http://sodipodi.sourceforge.net/DTD/sodipodi-0.dtd"
   xmlns:inkscape="http://www.inkscape.org/namespaces/inkscape"
   version="1.1"
   id="layer"
   x="0px"
   y="0px"
   viewBox="0 0 600 281"
   xml:space="preserve"
   sodipodi:docname="nhm.svg"
   width="600"
   height="281"
   inkscape:version="0.92.1 r15371"><metadata
     id="metadata9"><rdf:RDF><cc:Work
         rdf:about=""><dc:format>image/svg+xml</dc:format><dc:type
           rdf:resource="http://purl.org/dc/dcmitype/StillImage" /><dc:title></dc:title></cc:Work></rdf:RDF></metadata><defs
     id="defs7" /><sodipodi:namedview
     pagecolor="#ffffff"
     bordercolor="#666666"
     borderopacity="1"
     objecttolerance="10"
     gridtolerance="10"
     guidetolerance="10"
     inkscape:pageopacity="0"
     inkscape:pageshadow="2"
     inkscape:window-width="3440"
     inkscape:window-height="1377"
     id="namedview5"
     showgrid="false"
     fit-margin-top="0"
     fit-margin-left="0"
     fit-margin-right="0"
     fit-margin-bottom="0"
     inkscape:zoom="0.36196319"
     inkscape:cx="304.9"
     inkscape:cy="136.2"
     inkscape:window-x="-8"
     inkscape:window-y="-8"
     inkscape:window-maximized="1"
     inkscape:current-layer="layer" /><path
     d="m 581,234 v 45.7 h 7.3 v -54.8 h -10 l -15.8,36.2 -15.8,-36.2 h -10 v 54.8 H 544 V 234 h 0.2 c 0.7,2.7 2.2,7 4.7,12.8 l 11.4,25.7 h 4.3 L 576,246.8 c 2.6,-5.8 4,-10.1 4.7,-12.8 z m -47.3,-141.8 -5.5,24.1 h 11.3 l -5.7,-24.1 z m -190.3,0 -5.2,24.1 h 11.4 l -6,-24.1 z m 134.5,0.3 v 13.1 h 7.2 c 5.8,0 7.5,-3.3 7.5,-6.8 0,-3.4 -2.1,-6.3 -7.7,-6.3 z m 38.8,71.7 v 13.1 h 7.7 c 5.8,0 7.5,-3.3 7.5,-6.8 0,-3.4 -2.1,-6.3 -7.7,-6.3 z m -38.1,16.7 c 0,11.6 -2.5,17.6 -10.6,17.6 -8.1,0 -10.6,-6 -10.6,-17.6 0,-11.6 2.5,-17.6 10.6,-17.6 8.1,0.1 10.6,6 10.6,17.6 M 327.9,153.6 H 342 v 54.8 h -14.1 z m 116,100.1 h 23 v -5.9 h -23 v -17 h 21 c 4.2,0 5.9,-1.7 5.9,-5 v -1 h -34.2 v 54.8 h 35.5 v -5.9 h -28.2 z m -57.4,-14.8 c 0,19.1 29.9,12.6 29.9,26.6 0,6.1 -5.1,9.4 -13.2,9.4 -6.6,0 -11.9,-2.5 -16,-6.8 l -4.2,5.3 c 5.1,5 11.8,7.6 20.4,7.6 11.4,0 21,-5 21,-16 0,-19.2 -30.5,-13.8 -30.5,-26.6 0,-5.2 4.1,-8.6 10.8,-8.6 6,0 11.3,2.4 15,6.2 l 4.5,-4.5 c -4.9,-5 -11.2,-7.8 -19.4,-7.8 -11.9,-0.1 -18.3,6.3 -18.3,15.2 m -45.4,-8.1 c 0,-4.1 -1.7,-5.9 -5.8,-5.9 h -1.4 v 36.3 c 0,14.5 10.8,19.7 20.5,19.7 9.7,0 20.5,-5.2 20.5,-19.7 v -36.3 h -7.3 v 35.9 c 0,10.2 -6.4,13.7 -13.3,13.7 -6.8,0 -13.2,-3.5 -13.2,-13.7 z m 175,0 c 0,-4.1 1.7,-5.9 5.8,-5.9 h 1.5 v 36.3 c 0,14.5 -10.8,19.7 -20.5,19.7 -9.7,0 -20.5,-5.2 -20.5,-19.7 v -36.3 h 7.3 v 35.9 c 0,10.2 6.4,13.7 13.2,13.7 6.9,0 13.3,-3.5 13.3,-13.7 v -30 z m 48.5,-94.2 V 81.8 h 13.7 v 43.7 h 19.6 v 11.1 h -21.4 z m -185.7,0 V 92.9 H 366 V 81.8 h 40 v 2.6 c 0,5.9 -2.3,8.5 -9.8,8.5 h -3.6 v 43.7 z m 33.5,71.7 v -43.7 h -13.8 v -11.1 h 42.2 v 2.6 c 0,5.9 -2.3,8.5 -9.8,8.5 h -4.5 v 43.7 z m 162.1,-31.4 10.2,-23.3 H 600 l -18.7,36.6 v 18.2 H 567.4 V 190.2 L 548.7,153.6 H 564 l 10.2,23.3 z M 313.3,234 v 45.7 h 7.3 v -54.8 h -10 L 294.8,261.1 279,224.9 h -10 v 54.8 h 7.3 V 234 h 0.2 c 0.7,2.7 2.2,7 4.7,12.8 l 11.4,25.7 h 4.3 l 11.4,-25.7 c 2.6,-5.8 4,-10.1 4.7,-12.8 z m 59.4,-24.4 c -7.9,0 -15.7,-2.2 -22.4,-7.6 l 5.7,-9.5 c 3.8,3.2 9.6,6.4 16.1,6.4 5.1,0 9.3,-1.3 9.3,-5.3 0,-9.6 -28.6,-5 -28.6,-24.5 0,-11.4 9.8,-16.8 20.5,-16.8 8,0 14.7,2.4 19.8,6.7 l -5,9.5 c -4.2,-3.3 -9.5,-5.5 -14.8,-5.5 -4.5,0 -7,1.7 -7,4.7 0,9.5 28.7,5 28.7,24.6 -0.2,10.8 -9.6,17.3 -22.3,17.3 M 440.2,81.8 h 13.7 v 36.7 c 0,14.9 -10.3,19.3 -21.4,19.3 -11.1,0 -21.3,-4.4 -21.3,-19.3 V 81.8 h 3.2 c 7.8,0 10.5,3.7 10.5,11 v 25.4 c 0,5.9 2.5,8.6 7.7,8.6 5.1,0 7.7,-2.7 7.7,-8.6 V 81.8 Z m 104.2,54.8 -2.3,-9.5 h -16.5 l -2.2,9.5 H 509.6 L 524.4,81.8 H 543 l 15.3,54.8 z m -189.7,0 -2.4,-9.5 h -16.4 l -2.1,9.5 H 320 l 14.1,-54.8 h 18.6 l 16,54.8 z m -52.8,71.7 v -22.9 h -18.7 v 22.9 h -14.1 v -54.8 h 14.1 v 21.2 h 18.7 v -21.2 h 14 v 54.8 z m -1.5,-92.8 c -1.5,-4.1 -4.4,-10.4 -7.6,-15.7 l -6.2,-10.4 c -3.6,-6 -5.8,-7.7 -11.2,-7.7 H 269 v 54.8 h 12.6 v -34.1 h 0.2 c 1.5,4.2 4.8,10.9 7.9,16.1 l 6.8,11.3 c 3.1,5.1 5.4,6.8 10.7,6.8 h 5.9 V 81.8 h -12.6 v 33.7 z m 206.1,21.1 c -2.3,0.3 -4.1,0.4 -5.8,0.4 -7.7,0 -9.5,-2.5 -11.3,-7.1 l -5.3,-14 h -6.2 v 20.7 H 464.2 V 81.8 h 21.4 c 13.8,0 20.6,6.8 20.6,17.3 0,7.1 -3.2,12.4 -9.4,14.9 z m 42.8,71.7 c -2.5,0.4 -4.7,0.6 -6.6,0.6 -7.5,0 -10.2,-2.9 -12.2,-7.2 l -6.9,-14.1 h -6.8 v 20.7 h -14.1 v -54.8 h 22.7 c 13.8,0 20.6,6.8 20.6,17.2 0,7.1 -2.8,12 -9.2,14.9 z M 442.7,180.9 c 0,17.8 7.7,28.6 25.3,28.6 17.6,0 25.3,-10.8 25.3,-28.6 0,-17.8 -7.7,-28.7 -25.3,-28.7 -17.6,0.1 -25.3,10.9 -25.3,28.7 M 13.1,13.1 H 72.9 L 175.1,162.9 V 12.4 h 2.4 c 25.1,0 42,11.2 47.6,32.6 1.4,5.2 2,11.2 2,21.4 V 266.6 H 168.3 L 65.1,114.6 v 152.6 h -2.4 c -25.1,0 -42,-11.2 -47.6,-32.6 -1.3,-5.2 -2,-11.2 -2,-21.4 V 13.1 Z M 240.2,279.7 V 65.2 C 240.2,55.3 239.7,49 238.4,43.4 232.1,15.1 210,0 173.9,0 h -12 V 120.3 L 80,0 H 0 v 214.5 c 0,9.9 0.5,16.2 1.8,21.8 6.3,28.3 28.4,43.4 64.5,43.4 h 12 V 157.6 l 83,122.1 z"
     id="path2"
     inkscape:connector-curvature="0" /></svg>