<?xml version="1.0" encoding="UTF-8" standalone="no"?>
<!-- Generator: Adobe Illustrator 16.0.4, SVG Export Plug-In . SVG Version: 6.00 Build 0)  -->

<svg
   xmlns:dc="http://purl.org/dc/elements/1.1/"
   xmlns:cc="http://creativecommons.org/ns#"
   xmlns:rdf="http://www.w3.org/1999/02/22-rdf-syntax-ns#"
   xmlns:svg="http://www.w3.org/2000/svg"
   xmlns="http://www.w3.org/2000/svg"
   xmlns:sodipodi="http://sodipodi.sourceforge.net/DTD/sodipodi-0.dtd"
   xmlns:inkscape="http://www.inkscape.org/namespaces/inkscape"
   version="1.1"
   id="Layer_1"
   x="0px"
   y="0px"
   width="240.005"
   height="77.198997"
   viewBox="0 0 240.005 77.198997"
   enable-background="new 0 0 280 98"
   xml:space="preserve"
   sodipodi:docname="rbge.svg"
   inkscape:version="0.92.1 r15371"><metadata
     id="metadata9"><rdf:RDF><cc:Work
         rdf:about=""><dc:format>image/svg+xml</dc:format><dc:type
           rdf:resource="http://purl.org/dc/dcmitype/StillImage" /><dc:title></dc:title></cc:Work></rdf:RDF></metadata><defs
     id="defs7" /><sodipodi:namedview
     pagecolor="#ffffff"
     bordercolor="#666666"
     borderopacity="1"
     objecttolerance="10"
     gridtolerance="10"
     guidetolerance="10"
     inkscape:pageopacity="0"
     inkscape:pageshadow="2"
     inkscape:window-width="3440"
     inkscape:window-height="1377"
     id="namedview5"
     showgrid="false"
     fit-margin-top="0"
     fit-margin-left="0"
     fit-margin-right="0"
     fit-margin-bottom="0"
     inkscape:zoom="2.8688332"
     inkscape:cx="123.78521"
     inkscape:cy="37.53352"
     inkscape:window-x="-8"
     inkscape:window-y="-8"
     inkscape:window-maximized="1"
     inkscape:current-layer="Layer_1" /><path
     d="m 8.039,18.398 c 0.223,0.103 0.408,0.218 0.554,0.332 0.008,-0.004 0.012,-0.009 0.02,-0.011 -0.015,-0.179 -0.01,-0.385 0.022,-0.617 0.101,-0.722 0.412,-1.12 0.659,-1.241 0.239,0.147 0.393,0.651 0.292,1.376 -0.032,0.227 -0.085,0.422 -0.145,0.589 0,0.002 10e-4,0.002 10e-4,0.002 0.164,-0.075 0.357,-0.139 0.584,-0.187 0.714,-0.154 1.197,0 1.396,0.188 -0.057,0.274 -0.478,0.591 -1.194,0.745 -0.227,0.046 -0.429,0.066 -0.608,0.066 -0.002,0.007 -0.004,0.01 -0.006,0.014 0.125,0.127 0.256,0.287 0.38,0.485 0.39,0.617 0.411,1.12 0.301,1.371 -0.279,0.04 -0.722,-0.246 -1.111,-0.862 -0.128,-0.204 -0.219,-0.395 -0.28,-0.566 -0.019,0 -0.036,10e-4 -0.054,-0.002 0,0 -10e-4,-0.002 -0.003,-0.002 -0.091,0.16 -0.214,0.327 -0.375,0.503 C 7.975,21.119 7.493,21.269 7.221,21.228 7.11,20.97 7.271,20.472 7.766,19.933 7.93,19.756 8.092,19.62 8.242,19.516 8.239,19.501 8.239,19.485 8.236,19.47 8.058,19.431 7.858,19.366 7.64,19.264 6.976,18.957 6.683,18.546 6.64,18.275 6.845,18.087 7.375,18.089 8.039,18.398 Z m -1.131,2.146 0.025,1.239 1.156,-0.249 0.741,1.019 0.632,-0.863 1.058,0.366 0.153,-1.07 1.146,-0.336 -0.521,-0.998 0.729,-0.912 -1.067,-0.552 -0.028,0.01 0.168,-1.229 -1.02,0.366 -0.661,-1.059 -0.882,0.816 v 0.004 l -1.221,-0.569 -0.005,1.151 -0.002,-0.001 -1.214,0.315 0.52,1.079 0.018,0.005 -0.832,1.067 z m 6.924,5.16 c -0.155,0.236 -0.663,0.374 -1.386,0.258 -0.228,-0.038 -0.426,-0.094 -0.591,-0.158 -0.003,0.002 -0.006,0.005 -0.009,0.009 0.07,0.167 0.131,0.36 0.174,0.591 0.138,0.715 -0.029,1.192 -0.224,1.385 -0.273,-0.062 -0.582,-0.491 -0.716,-1.208 -0.046,-0.235 -0.06,-0.445 -0.054,-0.63 -0.016,-0.005 -0.034,-0.012 -0.048,-0.018 0,-0.002 -0.002,-0.002 -0.003,-0.003 -0.141,0.11 -0.318,0.226 -0.534,0.328 -0.658,0.319 -1.164,0.284 -1.401,0.148 -0.011,-0.28 0.323,-0.689 0.982,-1.008 0.217,-0.104 0.417,-0.174 0.595,-0.215 0.003,-0.016 0.008,-0.03 0.012,-0.045 -0.152,-0.101 -0.315,-0.234 -0.48,-0.409 -0.504,-0.527 -0.625,-1.017 -0.567,-1.284 0.266,-0.096 0.757,0.097 1.261,0.626 0.17,0.179 0.3,0.352 0.393,0.512 0.007,0 0.015,-0.004 0.023,-0.006 0.051,-0.17 0.133,-0.361 0.25,-0.562 0.358,-0.636 0.792,-0.894 1.066,-0.918 0.169,0.226 0.128,0.75 -0.232,1.387 -0.113,0.199 -0.233,0.363 -0.352,0.496 0,0 0.001,0.001 0,0.001 0.178,-0.008 0.385,0 0.613,0.039 0.718,0.119 1.112,0.436 1.228,0.684 z m -0.698,-1.877 -0.229,-1.227 -1.118,0.439 -0.003,0.005 -0.929,-0.976 -0.426,1.07 -10e-4,-0.004 -1.246,-0.148 0.086,1.195 0.014,0.009 -1.167,0.692 0.888,0.774 -0.433,1.164 1.168,0.188 0.317,1.219 0.904,-0.574 0.85,0.727 0.535,-0.938 1.19,0.104 -0.118,-1.121 1.011,-0.583 -0.789,-0.9 h -0.03 l 0.606,-1.088 z m 52.949,20.855 c 0.196,-0.203 0.72,-0.252 1.411,-0.009 0.219,0.077 0.401,0.166 0.552,0.26 10e-4,0 10e-4,-0.003 10e-4,0 -0.04,-0.174 -0.064,-0.377 -0.067,-0.607 -0.007,-0.729 0.239,-1.168 0.465,-1.323 0.258,0.106 0.484,0.584 0.491,1.312 0.002,0.23 -0.019,0.434 -0.056,0.605 0.003,0.004 0.008,0.004 0.012,0.01 0.15,-0.097 0.332,-0.191 0.553,-0.272 0.686,-0.26 1.184,-0.176 1.408,-0.019 -0.016,0.281 -0.386,0.651 -1.072,0.911 -0.223,0.083 -0.43,0.135 -0.611,0.157 -0.004,0.018 -0.006,0.035 -0.012,0.056 0,0 -0.002,0 -0.003,0.003 0.136,0.119 0.279,0.271 0.417,0.464 0.43,0.595 0.484,1.096 0.389,1.354 -0.276,0.057 -0.738,-0.203 -1.166,-0.794 -0.14,-0.194 -0.243,-0.378 -0.313,-0.549 -0.018,0 -0.033,0 -0.048,0 -0.074,0.167 -0.177,0.348 -0.32,0.542 -0.436,0.585 -0.9,0.786 -1.173,0.773 -0.139,-0.241 -0.036,-0.757 0.403,-1.343 0.148,-0.197 0.297,-0.354 0.438,-0.474 -0.003,-0.006 -0.006,-0.013 -0.008,-0.021 -0.177,-0.019 -0.38,-0.067 -0.6,-0.145 -0.69,-0.245 -1.021,-0.626 -1.091,-0.891 z m 0.408,2.096 -0.004,0.005 0.07,1.248 1.166,-0.292 0.005,-0.013 0.885,1.024 0.614,-1.005 1.224,0.224 -0.013,-1.176 1.152,-0.522 -0.723,-0.788 0.574,-0.96 -1.021,-0.363 -0.102,-1.188 -1.087,0.31 -0.75,-0.892 -0.757,0.928 0.004,0.029 -1.18,-0.407 0.159,1.066 -1.173,0.434 0.625,1.021 0.005,0.002 -0.805,1.08 z m 8.609,1.655 c -0.222,0.089 -0.426,0.144 -0.608,0.175 -0.004,0.018 -0.004,0.033 -0.009,0.052 -0.001,0.002 -0.001,0.002 -0.003,0.002 0.14,0.117 0.288,0.267 0.432,0.458 0.443,0.58 0.509,1.078 0.423,1.34 -0.273,0.063 -0.742,-0.181 -1.186,-0.761 -0.146,-0.193 -0.252,-0.373 -0.329,-0.539 -0.016,0 -0.033,-0.002 -0.047,-0.002 -0.07,0.171 -0.17,0.354 -0.308,0.553 -0.42,0.596 -0.879,0.81 -1.152,0.806 -0.147,-0.241 -0.055,-0.758 0.367,-1.356 0.143,-0.198 0.287,-0.362 0.424,-0.483 l -0.008,-0.02 C 72.918,48.64 72.714,48.6 72.49,48.528 c -0.697,-0.226 -1.036,-0.601 -1.113,-0.865 0.189,-0.206 0.713,-0.27 1.412,-0.042 0.218,0.07 0.404,0.153 0.557,0.243 10e-4,0 10e-4,-0.002 10e-4,0 -0.045,-0.173 -0.074,-0.376 -0.083,-0.606 -0.027,-0.726 0.21,-1.173 0.43,-1.335 0.262,0.102 0.5,0.571 0.527,1.304 0.009,0.229 -0.007,0.433 -0.039,0.604 0.003,0.004 0.007,0.006 0.011,0.01 0.148,-0.103 0.331,-0.201 0.547,-0.288 0.677,-0.277 1.179,-0.209 1.407,-0.056 -0.008,0.276 -0.368,0.658 -1.047,0.936 z m 1.082,-0.099 0.547,-0.973 -1.027,-0.335 -0.134,-1.185 -1.081,0.338 -0.772,-0.872 -0.731,0.947 0.005,0.028 -1.189,-0.375 0.187,1.062 -1.161,0.466 0.65,1.007 h 0.007 l -0.775,1.101 1.137,0.205 -0.003,0.004 0.102,1.246 1.158,-0.324 0.005,-0.017 0.912,1.002 0.589,-1.018 1.23,0.19 -0.045,-1.176 1.138,-0.55 z m 0.598,-5.699 c -0.156,0.232 -0.667,0.365 -1.39,0.239 -0.234,-0.043 -0.438,-0.103 -0.607,-0.173 -0.012,0.013 -0.022,0.027 -0.037,0.038 0,0 -0.002,0 -0.004,0.002 0.058,0.171 0.102,0.376 0.122,0.612 0.066,0.729 -0.143,1.187 -0.356,1.359 -0.269,-0.092 -0.532,-0.546 -0.598,-1.272 -0.021,-0.24 -0.017,-0.445 0.01,-0.631 -0.014,-0.011 -0.027,-0.019 -0.041,-0.026 -0.146,0.105 -0.331,0.212 -0.552,0.304 -0.675,0.284 -1.179,0.22 -1.409,0.075 0.006,-0.284 0.361,-0.675 1.035,-0.954 0.23,-0.095 0.437,-0.155 0.62,-0.185 0.002,-0.009 0.002,-0.017 0.003,-0.022 -0.141,-0.109 -0.293,-0.251 -0.443,-0.433 -0.469,-0.559 -0.558,-1.055 -0.481,-1.319 0.269,-0.075 0.748,0.146 1.217,0.71 0.148,0.175 0.26,0.345 0.343,0.503 10e-4,0 10e-4,-0.001 10e-4,0 0.055,-0.172 0.137,-0.356 0.253,-0.558 0.366,-0.632 0.804,-0.884 1.077,-0.9 0.167,0.224 0.117,0.747 -0.249,1.379 -0.115,0.2 -0.238,0.363 -0.356,0.494 10e-4,0.002 0.002,0.009 0.004,0.011 0.179,-0.005 0.386,0.007 0.618,0.047 0.719,0.125 1.108,0.451 1.22,0.7 z m 0.389,-1.708 -1.095,-0.286 -0.189,-1.148 -1.125,0.417 -0.012,0.027 -0.806,-0.951 -0.411,0.999 -1.231,-0.223 0.017,1.197 0.004,0.004 -1.246,0.521 0.854,0.777 -0.005,0.002 -0.579,1.106 1.154,0.341 0.013,-0.01 0.236,1.33 1.042,-0.553 0.94,0.812 0.59,-1.019 1.258,0.136 -0.22,-1.047 0.984,-0.535 -0.692,-0.829 z M 56.343,32.658 c 0.223,0.057 0.414,0.127 0.575,0.206 0,-10e-4 0,-10e-4 10e-4,-10e-4 -0.056,-0.169 -0.101,-0.368 -0.125,-0.599 -0.076,-0.724 0.127,-1.187 0.337,-1.363 0.268,0.086 0.538,0.536 0.616,1.262 0.024,0.229 0.024,0.434 0.005,0.611 0.003,10e-4 0.005,0.002 0.01,0.007 0.141,-0.114 0.315,-0.223 0.526,-0.326 0.657,-0.32 1.16,-0.286 1.399,-0.15 0.011,0.281 -0.322,0.688 -0.98,1.01 -0.214,0.105 -0.415,0.175 -0.594,0.216 -0.003,0.019 -0.003,0.036 -0.008,0.054 0,0 -10e-4,10e-4 -10e-4,0.002 0.148,0.106 0.304,0.248 0.461,0.428 0.483,0.548 0.583,1.04 0.514,1.306 -0.268,0.085 -0.751,-0.129 -1.234,-0.677 -0.158,-0.181 -0.278,-0.353 -0.366,-0.515 -0.015,0.002 -0.03,0.002 -0.045,0.002 -0.059,0.173 -0.145,0.365 -0.27,0.57 -0.376,0.623 -0.821,0.869 -1.092,0.886 -0.164,-0.232 -0.107,-0.755 0.271,-1.379 0.129,-0.211 0.261,-0.379 0.391,-0.514 -0.005,-0.005 -0.008,-0.011 -0.01,-0.021 -0.181,-0.003 -0.388,-0.03 -0.613,-0.087 -0.711,-0.177 -1.074,-0.526 -1.171,-0.785 0.174,-0.223 0.69,-0.32 1.403,-0.143 z m -1.254,0.914 h 0.005 l -0.696,1.148 1.152,0.128 -0.004,0.002 0.188,1.237 1.132,-0.401 0.005,-0.015 0.978,0.938 0.516,-1.058 1.242,0.105 -0.126,-1.17 1.097,-0.628 -0.796,-0.718 0.479,-1.008 -1.05,-0.267 -0.216,-1.171 -1.054,0.413 -0.834,-0.818 -0.663,0.998 0.006,0.027 -1.211,-0.293 0.258,1.047 -1.126,0.543 z m -6.238,1.949 c 0.131,-0.247 0.623,-0.439 1.353,-0.392 0.23,0.013 0.432,0.05 0.603,0.098 0,-10e-4 0.002,-10e-4 0.002,-10e-4 -0.087,-0.154 -0.167,-0.343 -0.232,-0.565 -0.207,-0.7 -0.092,-1.19 0.084,-1.4 0.276,0.035 0.625,0.429 0.833,1.129 0.066,0.223 0.103,0.421 0.115,0.598 0.003,10e-4 0.008,0.005 0.012,0.007 0.119,-0.135 0.27,-0.275 0.458,-0.415 0.588,-0.435 1.09,-0.492 1.35,-0.401 0.062,0.274 -0.193,0.735 -0.781,1.17 -0.193,0.141 -0.376,0.248 -0.546,0.32 0.001,0.018 0.004,0.034 0.002,0.054 0,0 0,0.002 -10e-4,0.003 0.164,0.078 0.344,0.188 0.531,0.336 0.575,0.451 0.764,0.92 0.745,1.192 -0.25,0.132 -0.765,0.009 -1.338,-0.444 -0.191,-0.148 -0.339,-0.298 -0.453,-0.441 -0.016,0.004 -0.032,0.008 -0.047,0.012 -0.025,0.179 -0.077,0.385 -0.16,0.607 -0.259,0.681 -0.65,1.004 -0.916,1.068 -0.201,-0.198 -0.241,-0.723 0.018,-1.404 0.089,-0.23 0.187,-0.42 0.292,-0.573 -0.004,-0.01 -0.009,-0.015 -0.013,-0.02 -0.177,0.027 -0.385,0.039 -0.62,0.022 -0.729,-0.048 -1.15,-0.324 -1.291,-0.56 z m 1.375,3.092 1.04,-0.598 0.003,-0.017 1.131,0.743 0.317,-1.129 1.239,-0.12 -0.337,-1.128 0.965,-0.814 -0.912,-0.564 0.288,-1.078 -1.082,-0.071 -0.423,-1.113 -0.962,0.593 -0.965,-0.652 -0.475,1.1 0.012,0.025 -1.247,-0.071 0.446,0.983 -1.01,0.736 0.881,0.812 h 0.005 l -0.477,1.258 1.154,-0.083 -0.003,0.004 z M 39.805,19.407 c 0.188,-0.207 0.713,-0.271 1.412,-0.047 0.22,0.071 0.404,0.155 0.559,0.243 h 10e-4 C 41.731,19.431 41.7,19.23 41.692,18.999 c -0.027,-0.729 0.207,-1.174 0.43,-1.338 0.262,0.103 0.5,0.571 0.528,1.3 0.008,0.23 -0.005,0.435 -0.037,0.609 0.003,0.002 0.006,0.004 0.01,0.008 0.148,-0.101 0.328,-0.2 0.546,-0.288 0.677,-0.278 1.178,-0.209 1.408,-0.057 -0.009,0.279 -0.369,0.664 -1.047,0.94 -0.223,0.09 -0.425,0.146 -0.607,0.177 -0.004,0.017 -0.005,0.035 -0.01,0.051 0,0.002 -0.002,0.002 -0.003,0.003 0.141,0.117 0.287,0.267 0.433,0.456 0.445,0.581 0.513,1.079 0.425,1.34 -0.275,0.065 -0.743,-0.181 -1.186,-0.759 -0.148,-0.192 -0.254,-0.375 -0.332,-0.54 h -0.046 c -0.069,0.167 -0.17,0.354 -0.308,0.551 -0.418,0.596 -0.878,0.811 -1.15,0.808 C 40.6,22.019 40.689,21.5 41.11,20.905 41.254,20.703 41.397,20.543 41.536,20.419 41.533,20.411 41.53,20.406 41.527,20.398 41.35,20.382 41.145,20.341 40.921,20.27 40.222,20.041 39.883,19.671 39.805,19.407 Z m 0.469,2.086 -0.005,0.002 0.104,1.246 1.158,-0.322 0.006,-0.017 0.912,1.002 0.587,-1.02 1.23,0.188 -0.046,-1.175 1.136,-0.554 -0.744,-0.769 0.546,-0.976 -1.03,-0.335 -0.136,-1.183 -1.078,0.34 -0.775,-0.871 -0.73,0.952 0.006,0.027 -1.189,-0.377 0.187,1.063 -1.161,0.465 0.653,1.005 0.004,0.002 -0.772,1.1 z m -4.221,-4.776 c 0.001,0 0.001,0 0.001,0.002 0.084,-0.158 0.196,-0.328 0.346,-0.506 0.47,-0.558 0.944,-0.731 1.22,-0.704 0.125,0.25 -0.016,0.759 -0.486,1.315 -0.148,0.18 -0.296,0.317 -0.437,0.428 0,0.003 0.002,0.006 0.002,0.012 0.178,0.024 0.379,0.071 0.598,0.153 0.689,0.247 1.016,0.632 1.082,0.897 -0.194,0.203 -0.719,0.246 -1.409,-0.002 -0.225,-0.081 -0.415,-0.176 -0.57,-0.274 -0.015,0.011 -0.026,0.022 -0.043,0.032 0,0.001 -10e-4,0.001 -0.003,0.001 0.025,0.181 0.034,0.389 0.012,0.624 -0.061,0.728 -0.347,1.143 -0.586,1.277 -0.246,-0.134 -0.428,-0.629 -0.367,-1.356 0.021,-0.239 0.062,-0.444 0.118,-0.619 -0.012,-0.012 -0.023,-0.021 -0.034,-0.032 -0.165,0.078 -0.365,0.149 -0.598,0.203 -0.713,0.163 -1.198,0.016 -1.399,-0.169 0.054,-0.275 0.471,-0.6 1.186,-0.762 0.24,-0.054 0.456,-0.077 0.641,-0.075 0.002,-0.005 0.004,-0.014 0.008,-0.021 -0.12,-0.131 -0.245,-0.298 -0.362,-0.5 -0.365,-0.634 -0.365,-1.137 -0.245,-1.385 0.277,-0.025 0.711,0.276 1.076,0.909 0.114,0.199 0.194,0.382 0.249,0.552 z m -1.585,-2.001 -0.193,1.183 0.002,0.005 -1.316,0.298 0.707,0.911 h -0.003 l -0.766,0.993 1.077,0.534 0.015,-0.01 10e-4,1.353 1.122,-0.363 0.786,0.96 0.758,-0.902 1.214,0.352 -0.032,-1.069 1.06,-0.355 -0.537,-0.938 0.695,-0.967 -1.028,-0.469 0.014,-1.163 -1.183,0.213 -0.014,0.026 -0.628,-1.075 -0.579,0.913 z M 28.764,35.42 c -0.215,-0.105 -0.393,-0.221 -0.535,-0.337 -0.016,0.012 -0.03,0.021 -0.046,0.028 h -0.004 c 0.006,0.182 -0.009,0.392 -0.056,0.624 -0.141,0.715 -0.471,1.098 -0.725,1.205 -0.229,-0.16 -0.356,-0.673 -0.216,-1.387 0.046,-0.237 0.112,-0.438 0.187,-0.604 -0.01,-0.013 -0.021,-0.024 -0.03,-0.038 -0.173,0.062 -0.379,0.11 -0.618,0.138 -0.727,0.083 -1.192,-0.115 -1.371,-0.32 0.083,-0.269 0.531,-0.544 1.261,-0.629 0.246,-0.025 0.462,-0.025 0.647,-0.005 0.003,-0.007 0.005,-0.012 0.01,-0.02 -0.106,-0.143 -0.211,-0.324 -0.307,-0.537 -0.292,-0.669 -0.238,-1.169 -0.092,-1.403 0.28,0.005 0.676,0.352 0.971,1.021 0.093,0.21 0.151,0.404 0.188,0.579 0.1,-0.147 0.23,-0.305 0.398,-0.465 0.529,-0.504 1.019,-0.625 1.289,-0.567 0.096,0.264 -0.097,0.752 -0.626,1.257 -0.17,0.159 -0.331,0.282 -0.481,0.376 0,0.003 0,0.007 0.001,0.012 0.173,0.045 0.368,0.113 0.578,0.217 0.656,0.322 0.939,0.74 0.979,1.012 -0.215,0.18 -0.744,0.165 -1.402,-0.157 z m 1.283,-1.952 0.142,-1.157 -1.198,0.086 -0.018,0.023 -0.507,-1.136 -0.673,0.848 -1.121,-0.558 -0.321,1.151 0.003,0.006 -1.341,0.152 0.602,0.985 -0.004,-0.002 -0.869,0.904 1.011,0.647 0.017,-0.005 -0.146,1.345 1.154,-0.24 0.676,1.042 0.853,-0.814 1.169,0.479 0.085,-1.065 1.094,-0.237 -0.43,-0.991 0.798,-0.885 z m 2.168,-1.935 c 0.22,-0.108 0.424,-0.179 0.606,-0.22 0.001,-0.007 0.001,-0.017 0.003,-0.021 -0.148,-0.1 -0.308,-0.234 -0.468,-0.405 -0.5,-0.533 -0.616,-1.022 -0.558,-1.289 0.267,-0.092 0.758,0.105 1.258,0.638 0.159,0.168 0.28,0.33 0.371,0.482 h 10e-4 c 0.046,-0.173 0.115,-0.364 0.22,-0.569 0.33,-0.652 0.751,-0.929 1.024,-0.964 0.179,0.216 0.161,0.742 -0.168,1.394 -0.104,0.206 -0.217,0.377 -0.328,0.514 10e-4,0.004 0.003,0.007 0.005,0.012 0.178,-0.018 0.385,-0.018 0.618,0.01 0.728,0.084 1.134,0.385 1.261,0.629 -0.144,0.24 -0.646,0.404 -1.375,0.319 -0.237,-0.028 -0.444,-0.077 -0.617,-0.138 -0.012,0.015 -0.022,0.026 -0.034,0.041 -10e-4,0.002 -10e-4,0.002 -0.004,0.002 0.067,0.17 0.122,0.37 0.155,0.606 0.11,0.723 -0.073,1.189 -0.275,1.376 -0.271,-0.075 -0.564,-0.516 -0.67,-1.236 -0.035,-0.236 -0.042,-0.447 -0.026,-0.63 -0.017,-0.009 -0.029,-0.016 -0.043,-0.024 -0.141,0.114 -0.318,0.229 -0.534,0.335 -0.657,0.321 -1.163,0.288 -1.4,0.154 -0.013,-0.285 0.319,-0.695 0.978,-1.016 z m -1.019,0.113 -0.005,0.002 -0.516,1.139 1.171,0.275 0.012,-0.013 0.313,1.314 1.007,-0.61 0.986,0.759 0.532,-1.054 1.261,0.066 -0.276,-1.031 0.95,-0.59 -0.74,-0.789 0.456,-1.103 -1.108,-0.221 -0.254,-1.136 -1.103,0.48 -0.008,0.027 -0.86,-0.901 -0.352,1.021 -1.241,-0.153 0.084,1.193 0.004,0.004 -1.212,0.592 z m -4.132,-4.412 c 0.241,0.039 0.45,0.098 0.622,0.17 0.004,-0.007 0.01,-0.013 0.015,-0.018 -0.063,-0.168 -0.115,-0.368 -0.148,-0.601 -0.101,-0.722 0.088,-1.188 0.292,-1.374 0.271,0.078 0.558,0.52 0.659,1.242 0.03,0.229 0.035,0.432 0.022,0.609 h 0.001 c 0.136,-0.115 0.305,-0.229 0.509,-0.339 0.648,-0.343 1.153,-0.328 1.395,-0.198 0.021,0.279 -0.296,0.697 -0.942,1.04 -0.207,0.107 -0.397,0.183 -0.568,0.23 0,0.006 -10e-4,0.01 -10e-4,0.015 0.156,0.089 0.324,0.207 0.498,0.364 0.545,0.485 0.703,0.966 0.667,1.236 -0.257,0.116 -0.762,-0.039 -1.308,-0.527 -0.178,-0.161 -0.318,-0.319 -0.424,-0.467 -0.017,0.005 -0.034,0.012 -0.052,0.015 0,0 -10e-4,-0.002 -0.002,-0.002 -0.044,0.177 -0.117,0.372 -0.226,0.585 -0.329,0.653 -0.75,0.929 -1.024,0.965 -0.178,-0.217 -0.161,-0.743 0.171,-1.396 0.107,-0.215 0.226,-0.39 0.344,-0.529 -0.008,-0.016 -0.016,-0.027 -0.022,-0.043 -0.182,0.014 -0.395,0.003 -0.631,-0.034 -0.722,-0.115 -1.118,-0.433 -1.233,-0.68 0.154,-0.234 0.661,-0.379 1.386,-0.263 z m -1.982,0.14 0.796,0.896 0.017,-0.003 -0.507,1.255 1.177,0.081 0.364,1.186 1.042,-0.556 0.995,0.778 0.372,-1.002 1.116,0.064 -0.145,-1.07 1.01,-0.638 -0.777,-0.818 0.448,-1.075 -1.178,-0.241 -0.022,0.019 -0.18,-1.229 -0.879,0.632 -0.927,-0.839 -0.621,1.025 v 0.005 l -1.331,-0.213 0.312,1.109 -0.003,-0.002 z m -3.646,3.333 c 0.239,0.06 0.441,0.135 0.607,0.219 0.005,-0.003 0.011,-0.009 0.018,-0.014 -0.049,-0.173 -0.085,-0.376 -0.096,-0.61 -0.039,-0.729 0.188,-1.178 0.407,-1.343 0.263,0.098 0.51,0.563 0.549,1.292 0.012,0.229 0,0.434 -0.028,0.606 0,0 0,0 0,0.002 0.145,-0.103 0.324,-0.204 0.538,-0.294 0.673,-0.288 1.173,-0.23 1.406,-0.081 -0.002,0.279 -0.357,0.67 -1.03,0.957 -0.212,0.093 -0.409,0.15 -0.583,0.183 l -0.003,0.013 c 0.148,0.104 0.307,0.233 0.467,0.404 0.501,0.532 0.617,1.021 0.558,1.289 -0.267,0.092 -0.756,-0.103 -1.255,-0.637 -0.165,-0.174 -0.292,-0.342 -0.385,-0.501 -0.018,0.002 -0.035,0.008 -0.052,0.008 0,0 -0.002,0 -0.004,0 -0.057,0.173 -0.148,0.362 -0.272,0.565 -0.385,0.619 -0.828,0.862 -1.104,0.874 -0.16,-0.232 -0.096,-0.754 0.287,-1.375 0.127,-0.204 0.26,-0.37 0.389,-0.5 -0.006,-0.016 -0.011,-0.03 -0.017,-0.046 -0.184,-0.003 -0.393,-0.029 -0.627,-0.087 -0.711,-0.175 -1.076,-0.523 -1.171,-0.781 0.172,-0.219 0.691,-0.32 1.401,-0.143 z m -1.985,-0.03 0.718,0.961 h 0.016 l -0.61,1.207 1.165,0.182 0.264,1.212 1.085,-0.466 0.925,0.859 0.455,-0.968 1.107,0.159 -0.055,-1.078 1.062,-0.548 -0.705,-0.883 0.538,-1.034 -1.152,-0.337 -0.024,0.016 -0.075,-1.24 -0.928,0.554 -0.853,-0.913 -0.709,0.969 0.002,0.006 -1.309,-0.326 0.218,1.133 -0.004,-0.004 z m -2.89,0.734 c -0.177,0.221 -0.699,0.305 -1.405,0.113 -0.224,-0.062 -0.413,-0.136 -0.57,-0.22 -0.004,0.003 -0.008,0.005 -0.011,0.007 0.053,0.171 0.093,0.373 0.112,0.607 0.06,0.727 -0.156,1.184 -0.37,1.354 -0.264,-0.093 -0.524,-0.548 -0.583,-1.275 -0.019,-0.24 -0.013,-0.451 0.014,-0.631 -0.016,-0.01 -0.031,-0.014 -0.046,-0.025 -10e-4,0 -10e-4,-0.002 -0.003,-0.002 -0.154,0.097 -0.341,0.191 -0.566,0.27 -0.688,0.25 -1.186,0.16 -1.41,0.002 0.021,-0.28 0.396,-0.651 1.083,-0.899 0.229,-0.08 0.434,-0.129 0.617,-0.149 0.005,-0.018 0.009,-0.031 0.015,-0.045 -0.141,-0.115 -0.289,-0.268 -0.435,-0.456 -0.447,-0.58 -0.515,-1.077 -0.429,-1.34 0.275,-0.064 0.743,0.179 1.189,0.757 0.149,0.195 0.262,0.382 0.336,0.55 0.008,-0.002 0.015,-0.002 0.022,-0.002 0.07,-0.162 0.17,-0.346 0.308,-0.537 0.426,-0.593 0.884,-0.804 1.159,-0.798 0.143,0.241 0.045,0.758 -0.38,1.354 -0.133,0.188 -0.27,0.339 -0.401,0.458 0.179,0.01 0.381,0.041 0.606,0.102 0.703,0.19 1.058,0.55 1.148,0.805 z m -0.495,-1.939 -0.095,-1.243 -1.16,0.317 -0.003,0.005 -0.82,-1.065 -0.538,1.019 v -0.003 l -1.224,-0.278 -0.039,1.195 0.013,0.012 -1.233,0.565 0.799,0.865 -0.552,1.111 1.142,0.311 0.185,1.247 0.962,-0.475 0.767,0.812 0.632,-0.878 1.173,0.227 v -1.127 l 1.069,-0.472 -0.692,-0.98 -0.028,-0.001 0.718,-1.019 z m -7.54,1.992 c -0.231,0.005 -0.433,-0.017 -0.609,-0.049 -0.002,0.001 -0.005,0.005 -0.009,0.01 0.1,0.15 0.195,0.331 0.278,0.549 0.262,0.683 0.184,1.181 0.026,1.404 C 7.932,33.362 7.551,32.995 7.292,32.316 7.205,32.09 7.152,31.885 7.127,31.706 7.11,31.701 7.093,31.7 7.075,31.695 7.074,31.695 7.072,31.692 7.071,31.692 6.953,31.828 6.798,31.97 6.605,32.112 6.012,32.542 5.511,32.596 5.252,32.506 5.192,32.232 5.45,31.771 6.04,31.342 6.234,31.198 6.421,31.097 6.588,31.024 6.589,31.007 6.589,30.994 6.591,30.979 6.421,30.907 6.238,30.803 6.044,30.66 5.454,30.23 5.249,29.77 5.256,29.496 c 0.246,-0.14 0.762,-0.035 1.353,0.396 0.2,0.144 0.358,0.291 0.48,0.434 0.005,-0.004 0.014,-0.007 0.02,-0.01 0.021,-0.175 0.065,-0.379 0.145,-0.6 0.241,-0.688 0.622,-1.019 0.889,-1.09 0.205,0.191 0.256,0.715 0.016,1.403 -0.076,0.218 -0.166,0.4 -0.257,0.551 0,0.001 0,0.001 0,0.001 0.173,-0.039 0.376,-0.064 0.609,-0.068 0.734,-0.012 1.174,0.231 1.333,0.457 -0.11,0.257 -0.585,0.484 -1.318,0.494 z M 9.519,30.25 9.49,30.255 9.894,29.08 8.824,29.243 8.382,28.076 7.36,28.705 7.359,28.71 6.271,27.916 6.041,29.042 6.04,29.039 l -1.253,0.073 0.299,1.161 0.015,0.006 -1.025,0.887 1.01,0.606 -0.218,1.223 1.183,-0.02 0.529,1.144 0.79,-0.724 0.964,0.564 L 8.693,32.941 9.885,32.832 9.568,31.751 10.46,31 Z M 3.187,24.951 c 0.244,-0.031 0.46,-0.033 0.646,-0.014 l 0.009,-0.02 C 3.735,24.773 3.63,24.596 3.534,24.382 c -0.3,-0.666 -0.25,-1.168 -0.107,-1.399 0.28,-0.002 0.679,0.344 0.98,1.007 0.096,0.21 0.156,0.404 0.194,0.577 H 4.602 C 4.701,24.42 4.83,24.262 4.996,24.1 c 0.523,-0.509 1.015,-0.637 1.283,-0.58 0.098,0.264 -0.091,0.755 -0.613,1.263 -0.167,0.161 -0.328,0.287 -0.479,0.382 0,0.004 0,0.009 10e-4,0.013 0.174,0.041 0.369,0.109 0.581,0.21 0.659,0.314 0.948,0.73 0.988,1.002 C 6.544,26.573 6.015,26.562 5.356,26.247 5.139,26.143 4.959,26.032 4.816,25.918 4.799,25.927 4.786,25.939 4.77,25.944 H 4.768 c 0.005,0.183 -0.006,0.391 -0.05,0.624 -0.132,0.717 -0.46,1.103 -0.712,1.214 C 3.774,27.623 3.643,27.112 3.775,26.395 3.82,26.161 3.882,25.958 3.955,25.79 3.945,25.778 3.934,25.769 3.923,25.756 3.753,25.818 3.547,25.869 3.306,25.899 2.583,25.99 2.115,25.796 1.933,25.591 2.011,25.321 2.459,25.04 3.187,24.951 Z M 1.323,25.637 2.342,26.276 2.357,26.269 2.224,27.615 3.379,27.364 4.062,28.4 4.907,27.576 6.081,28.044 6.153,26.979 7.245,26.729 6.803,25.743 7.593,24.85 6.615,24.282 6.744,23.123 5.547,23.222 5.528,23.246 5.01,22.115 4.343,22.966 3.218,22.423 2.909,23.578 2.912,23.582 1.574,23.75 2.185,24.729 H 2.181 Z M 44.15,65.993 c 0.11,-0.696 0.587,-1.319 1.213,-1.76 0.33,-0.219 0.845,-0.328 1.174,-0.254 -0.403,0.621 -0.845,1.426 -0.478,2.232 h 0.075 c 0.11,-0.331 0.256,-0.768 0.662,-0.915 1.653,-0.768 3.601,-0.074 5.255,0.035 -0.146,-0.658 -0.404,-1.282 -0.736,-1.867 -2.02,-0.586 -4.336,-0.768 -6.393,-0.146 -2.17,1.354 -4.632,2.049 -7.315,2.086 -1.837,0.109 -3.38,1.355 -4.483,2.819 0.221,0.438 0.846,0.07 1.213,0.291 -0.036,0.331 -0.331,0.512 -0.404,0.807 -0.22,0.328 -0.038,0.768 0.404,0.695 3.233,-0.038 5.365,-2.964 7.938,-4.395 -1.544,3.664 -6.027,6.552 -4.117,11.127 0.515,-0.037 0.883,-0.729 1.323,-1.023 0.332,0.367 0.037,1.023 0.442,1.317 l 0.662,-0.731 0.404,0.55 0.183,-0.073 c 0.736,-1.429 0.589,-3.221 0.479,-4.831 -0.113,-1.282 -0.037,-2.417 0.257,-3.662 0.515,-0.951 0.735,-2.194 1.69,-2.781 l -0.404,1.608 c 0.147,2.855 1.066,5.821 3.784,7.178 0.258,-0.076 0.222,-0.332 0.185,-0.551 0.111,-0.734 0.624,0.291 1.064,0.106 0.296,-0.144 0.075,-0.548 0.222,-0.804 0.222,-0.184 0.368,0.11 0.625,0.074 C 49.808,69.358 44.26,69.54 44.15,65.993 Z M 44.112,32.828 c -0.956,0.696 -1.802,1.575 -2.609,2.526 -0.55,-1.244 -1.213,-2.598 -1.69,-3.99 l 0.992,-2.157 c 0.882,1.062 2.095,1.243 3.233,1.683 0.184,-0.365 -0.146,-0.695 -0.22,-1.061 -0.587,-0.659 -1.287,-0.99 -2.021,-1.283 1.064,-0.036 2.059,-0.365 3.087,-0.548 l 0.072,0.403 c -0.293,1.536 1.104,3.659 -0.844,4.427 z M 33.198,50.872 c 3.049,1.1 5.879,3.076 8.306,5.419 -1.36,-0.33 -2.426,-1.355 -3.603,-2.126 l -0.071,0.186 c 0.255,0.658 0.367,1.391 0.697,2.013 -1.802,0.109 -3.308,0.843 -4.595,2.195 -0.735,-0.218 -1.176,-0.987 -1.69,-1.537 -1.434,-2.086 -2.426,-4.353 -2.537,-6.99 1.25,-0.146 2.28,0.624 3.493,0.84 z m 12.566,9.481 C 43.78,60.317 41.76,60.059 39.922,59.511 39.48,59.547 39.04,58.412 38.747,59.07 c 0.035,0.55 0.22,1.025 0.552,1.43 -0.406,0.146 -0.883,0.073 -1.398,0.036 -1.103,-0.329 -2.241,-0.551 -3.159,-1.318 0.734,-1.17 2.168,-1.61 3.417,-1.758 -0.514,0.365 -0.918,0.987 -1.103,1.574 l 0.222,0.184 c 1.801,-1.976 4.74,-0.624 6.652,0.183 0.622,0.292 1.211,0.624 1.834,0.952 z M 73.401,30.376 c -2.902,-1.244 -6.541,0.403 -9.296,-0.771 3.418,-0.73 7.056,-2.12 9.003,-5.452 0.588,-1.024 1.288,-2.087 1.396,-3.294 -0.771,-0.181 -1.36,0.331 -2.058,0.403 L 72.335,21.19 c 0.256,-0.733 0.552,-1.502 0.479,-2.307 -0.992,0.036 -1.764,0.805 -2.573,1.099 -0.073,-0.621 0.332,-1.427 0,-1.977 -1.689,0.478 -2.827,2.125 -3.637,3.516 -1.289,2.013 -1.323,4.538 -2.718,6.478 -0.774,1.025 -2.207,0.878 -3.308,0.695 -4.926,-0.952 -10.327,0.073 -14.37,2.709 -0.476,-1.062 -0.256,-2.6 -0.185,-3.844 l 3.162,-1.135 c 0.735,-0.402 1.396,0.11 1.948,0.475 1.174,0.917 2.757,0.44 4.191,0.404 l 0.182,-0.183 c -0.551,-0.038 -0.954,-0.441 -1.433,-0.66 -0.957,-0.476 -2.204,-0.291 -3.196,-0.694 0.55,-0.256 1.176,-0.476 1.837,-0.33 1.911,0.549 3.491,-0.401 5.218,-0.695 l 0.037,-0.183 C 57.272,24.155 56.39,24.12 55.582,23.9 c -1.875,-0.293 -3.235,0.808 -4.853,1.062 0.332,-0.512 1.03,-0.586 1.508,-0.952 0.661,-0.438 1.249,-1.353 2.132,-1.537 v -0.148 c -0.772,-0.219 -1.544,0.076 -2.315,0.076 -0.736,0.255 -1.213,1.061 -1.619,1.682 -0.697,1.867 -2.718,1.977 -4.225,2.597 L 46.1,26.573 c 0.291,-2.855 0.657,-6.076 3.45,-7.506 2.427,-0.769 4.264,1.208 6.176,2.342 1.981,1.137 4.629,1.94 6.833,0.842 0.075,-0.914 -0.845,-1.535 -1.434,-2.16 0.294,-0.255 0.735,-0.108 1.104,-0.146 0.441,-0.183 1.14,-0.146 1.286,-0.693 -0.331,-0.808 -1.14,-1.393 -1.837,-1.904 v -0.11 c 0.587,-0.22 1.14,-0.585 1.58,-1.099 l -0.22,-0.328 c -4.3,-2.892 -9.959,-0.77 -13.672,1.903 H 49.143 C 51.716,13.067 57.156,13.431 60.205,9.222 60.83,8.381 61.601,7.428 61.234,6.33 60.498,6.55 59.654,6.623 58.917,6.771 59.139,6.038 59.616,5.234 59.359,4.465 58.331,4.427 57.522,5.012 56.64,5.157 56.714,4.5 56.824,3.732 56.897,3.037 l -0.111,-0.11 c -2.167,0.439 -3.967,2.23 -5.032,4.173 -2.022,3.111 -1.435,7.356 -3.713,10.395 -0.111,-1.246 0.33,-2.562 0.293,-3.954 0,-4.246 -0.147,-9.259 -4.63,-10.906 C 43.337,3.222 43.521,4.026 43.189,4.537 42.527,3.99 41.83,3.402 41.02,3.294 40.616,4.136 40.728,5.159 40.581,6.075 L 39.22,5.234 c -0.146,0.072 -0.111,0.254 -0.219,0.365 -0.148,4.538 4.041,7.613 7.092,10.503 1.654,2.491 0,5.383 -0.625,7.798 -0.256,1.024 -0.108,2.27 -0.661,3.111 -0.993,0.365 -2.059,0.623 -3.124,0.623 0.882,-0.878 1.947,-1.795 2.205,-3.039 -0.404,-0.037 -0.919,0.258 -1.361,0.441 -0.993,0.476 -1.286,1.683 -1.763,2.378 -0.22,-0.733 -0.293,-1.537 -0.258,-2.415 l 1.213,-1.392 V 23.35 c -0.036,-0.182 -0.221,-0.256 -0.442,-0.219 -0.366,0.402 -0.732,0.731 -1.211,0.915 -1.029,-0.806 -2.205,-1.94 -2.756,-3.112 -0.186,-0.109 -0.442,-0.074 -0.59,0.073 0.404,1.464 1.543,2.673 2.756,3.734 0.258,1.684 1.139,4.025 -0.256,5.418 -1.542,-3.039 -3.271,-6.005 -5.329,-8.858 -1.396,-2.196 -4.004,-3.771 -4.595,-6.296 -0.292,-1.391 0.185,-2.598 1.103,-3.513 3.053,-2.27 5.77,-5.417 5.808,-9.296 -0.735,-0.073 -1.36,0.477 -1.983,0.658 0,-0.805 0.22,-1.757 0.073,-2.562 C 33.085,0.33 32.24,1.281 31.358,1.976 L 31.283,1.904 c 0.183,-0.586 0,-1.246 0,-1.904 h -0.292 c -1.765,0.915 -2.868,2.747 -3.308,4.538 -1.25,3.807 0.479,7.43 0.881,11.018 l -1.69,-1.281 C 23.712,10.651 20.48,6.516 15.445,6.735 15.408,7.504 15.849,8.236 15.923,8.931 14.931,8.82 13.938,8.455 12.909,8.71 c 0.295,0.843 0.587,1.794 1.176,2.564 -0.734,0.108 -1.361,0.438 -2.058,0.548 1.543,2.234 4.262,3.294 6.945,3.66 2.021,0.438 4.042,0.036 6.1,0.183 1.141,-0.22 2.206,0.294 3.125,0.916 l -0.076,0.074 c -1.58,-0.368 -2.901,0.291 -4.337,0.438 -3.858,1.023 -7.901,4.758 -8.415,8.821 l 0.11,0.183 2.279,-0.732 c 0.074,0.769 0.11,1.573 0.293,2.307 0.366,0.074 0.81,-0.221 1.176,-0.438 0.589,-0.258 1.029,-0.916 1.617,-1.025 0.073,0.55 -0.111,1.281 0.22,1.683 4.117,-0.915 4.005,-5.417 5.182,-8.49 0.33,-0.585 0.698,-1.317 1.36,-1.538 0.771,-0.365 1.727,-0.183 2.315,0.366 3.894,3.882 6.577,8.493 8.783,13.179 -1.655,3.256 -4.303,6.368 -7.35,8.564 l -0.296,0.071 c 0.039,-0.804 0.367,-1.5 0.81,-2.12 0.515,-1.098 1.138,-2.307 0.993,-3.552 -0.184,-0.146 -0.369,0.074 -0.518,0.11 -0.146,1.245 -0.586,2.452 -1.433,3.294 -0.551,-0.146 -0.478,-1.135 -1.028,-0.805 -0.368,0.405 0,0.879 0.365,1.173 0.479,0.915 -0.146,1.792 -0.365,2.634 -0.442,-1.024 -1.508,-1.83 -2.538,-2.157 -0.662,-0.038 -1.249,-0.404 -1.801,-0.515 0.147,1.39 1.691,2.197 2.829,2.601 0.442,0.329 1.433,0.767 1.103,1.573 -0.037,0.146 -0.11,0.366 -0.33,0.33 l -6.689,-2.893 c -0.439,-2.746 -4.373,-3.953 -4.152,-6.99 h -0.221 c -0.146,0.51 -0.183,1.061 -0.293,1.609 -0.259,2.014 1.249,3.549 2.756,4.54 l -0.037,0.072 c -2.314,-1.172 -4.851,-1.865 -7.021,-3.478 -0.403,-0.477 0.295,-1.099 -0.257,-1.537 -0.477,-0.072 -0.44,0.549 -0.625,0.841 -0.845,-0.219 -1.468,-1.172 -2.315,-1.537 -0.148,0.184 -0.587,0.038 -0.441,0.44 l 1.432,1.392 C 10.804,34.994 10.178,34.885 9.666,34.703 9.115,34.556 8.563,34.117 8.085,34.045 c -0.073,0.146 -0.292,0.291 -0.183,0.439 1.359,1.024 3.089,1.354 4.813,1.609 1.655,1.099 3.492,1.759 5.109,2.893 -2.608,0.694 -5.438,0.549 -8.12,0.108 -2.243,-1.023 -3.16,-4.1 -5.624,-4.758 -0.515,0 -1.286,-0.256 -1.542,0.221 1.1,0.769 1.8,1.904 2.865,2.782 0.662,0.548 1.433,0.878 2.057,1.428 C 6.321,38.876 5.366,37.961 4.336,37.631 3.013,36.938 1.432,37.486 0.038,37.119 0.073,37.558 0.552,37.926 0.809,38.327 0.552,38.546 0.11,38.583 0,38.876 c 1.801,1.464 4.226,0.366 6.396,0.44 0.331,0.327 0.66,-0.223 0.918,0.182 -1.289,0.696 -2.793,0.768 -3.897,1.903 -0.589,0.475 -1.47,1.097 -1.617,1.866 2.206,0.292 3.896,-1.062 5.182,-2.708 1.396,-1.063 3.492,-0.66 5.107,-0.294 1.288,0.182 2.5,-0.22 3.786,0 -0.367,0.513 -0.66,1.136 -0.66,1.757 1.837,0.183 2.865,-1.864 4.74,-1.757 3.271,0.513 6.138,2.053 9.078,3.442 l -0.33,2.78 -0.148,0.184 c -1.433,-0.732 -3.013,-1.134 -4.703,-1.244 -0.736,-0.11 -0.736,-0.952 -0.957,-1.498 -0.442,-1.062 -1.617,-1.468 -2.684,-1.577 -0.257,-0.034 -0.696,-0.147 -0.844,0.109 1.324,0.439 1.984,2.051 3.161,2.892 l -0.11,0.074 c -1.544,-0.036 -2.5,-1.757 -4.192,-1.135 -0.329,0.22 -0.954,-0.109 -1.101,0.291 1.323,1.136 2.904,1.686 4.814,1.43 0.147,0 0.404,-0.074 0.367,0.182 -1.322,0.694 -2.756,1.1 -4.263,1.391 0.698,0.516 1.836,0.66 2.793,0.589 1.249,-0.073 1.653,-1.648 2.865,-1.869 1.765,0.183 4.152,0.112 4.851,2.124 0.038,0.218 -0.073,0.44 -0.294,0.513 -0.809,-0.109 -1.763,-0.109 -2.572,0 -3.674,0.146 -7.717,3.257 -11.025,0.219 -2.278,-2.892 -5.514,-5.087 -9.335,-4.136 0.073,0.515 0.404,0.878 0.588,1.318 -0.771,0.218 -1.728,0.036 -2.425,0.402 0.368,0.807 1.177,1.356 1.692,2.087 -0.736,0.185 -1.617,0.218 -2.059,0.877 0.478,0.844 1.397,1.465 2.205,2.015 4.042,1.828 9.335,1.098 13.341,-0.329 l 0.074,0.111 c -1.691,1.534 -3.821,2.12 -5.696,3.328 -2.904,1.9 -4.668,4.978 -4.191,8.381 0.626,0.219 1.178,-0.293 1.692,-0.549 0.294,0.807 0.075,1.865 0.515,2.673 0.257,0.182 0.624,-0.109 0.882,-0.258 0.516,-0.258 0.955,-0.951 1.397,-1.17 -0.038,0.769 0.11,1.535 0.551,1.977 1.911,-1.72 2.793,-4.025 3.197,-6.441 0.257,-2.819 0.366,-5.966 2.865,-7.539 -0.292,0.84 -0.697,1.646 -0.808,2.559 -0.625,3.808 0.111,7.979 3.455,10.213 l 0.442,0.037 c 0.33,-0.479 0.404,-1.099 0.441,-1.723 0.697,0.078 1.139,1.062 1.91,1.062 0.442,-0.657 0.074,-1.647 0.33,-2.379 0.441,0.147 0.663,0.768 1.174,0.696 0.627,-2.563 -0.733,-4.686 -2.68,-6.371 -1.104,-1.244 -3.308,-2.012 -3.124,-3.987 0.882,-2.086 3.345,-1.978 5.292,-2.27 0.734,0.329 1.543,-0.33 2.204,0.222 0.404,3.655 1.691,6.953 4.593,9.623 l -1.837,2.783 c -0.737,-0.075 -1.213,0.547 -1.545,1.097 -0.477,0.844 -1.32,1.429 -2.314,1.281 0.367,0.586 1.14,0.479 1.654,0.808 l -1.14,1.171 c -2.462,1.939 -4.228,-1.428 -6.688,-0.514 -0.037,0.694 0.515,1.317 1.138,1.758 1.03,0.55 2.537,0.587 3.675,0.293 -0.329,0.401 -0.882,0.624 -1.434,0.696 -1.982,0.948 -4.813,-0.733 -6.356,1.281 -0.037,0.768 0.955,0.693 1.434,1.061 2.389,0.329 4.595,-0.515 6.395,-2.052 0.037,-0.146 0.222,-0.108 0.293,-0.072 -1.1,1.5 -2.316,3.402 -1.506,5.234 0.293,0.108 0.405,-0.185 0.625,-0.221 1.469,-0.768 1.469,-2.378 1.469,-3.914 0.259,-1.612 1.436,-2.855 2.647,-4.064 0.368,0.476 0.294,1.245 0.734,1.758 0.074,-0.036 0.183,0.037 0.22,-0.036 -0.441,-1.9 1.654,-3.146 1.289,-5.052 0.587,-0.987 1.287,-2.013 2.058,-2.82 l 2.094,0.989 c 0.662,0.293 1.396,0.365 2.095,0.585 -0.075,0.364 -0.478,0.622 -0.662,0.951 -0.109,0.442 -0.661,0.841 -0.33,1.245 2.169,-2.892 6.358,-1.354 9.481,-1.283 l 0.551,-0.07 c 0.366,-1.759 -1.029,-2.82 -1.618,-4.21 -4.336,-3.882 -8.819,-7.798 -14.332,-9.008 -0.551,-0.252 -1.249,-0.071 -1.726,-0.51 0.036,-0.292 0.109,-0.584 0.367,-0.806 0.918,0 1.615,-0.659 2.315,-1.169 0.147,-0.186 0.514,0.033 0.551,-0.26 -0.737,-0.184 -1.765,-0.476 -2.462,0 -0.331,0.181 -0.44,0.585 -0.771,0.551 -0.037,-0.988 0.255,-1.794 0.255,-2.745 l 0.148,-0.111 c 2.169,1.062 4.336,2.124 6.249,3.807 0.586,0.55 1.542,1.023 1.725,1.758 h -0.329 c -0.735,-0.035 -1.653,-0.146 -2.207,0.073 0.479,0.256 1.029,0.292 1.471,0.585 2.828,1.831 5.218,4.211 7.828,6.588 0.185,0.037 0.369,0.185 0.516,-0.035 l -0.442,-1.866 c -2.719,-2.197 -4.851,-5.235 -7.608,-7.615 -1.984,-1.608 -4.077,-3 -6.32,-3.952 -0.293,-0.182 -0.883,-0.474 -0.515,-0.949 0.073,-0.366 0.478,-0.659 0.809,-0.734 1.616,0.184 3.529,0.294 4.924,-0.439 0.808,-0.552 1.58,-1.427 1.689,-2.342 -1.726,1.316 -4.116,1.062 -6.026,1.905 l -0.075,-0.076 c 2.868,-2.086 5.696,-5.196 7.387,-8.272 h 0.148 c 0.589,1.246 1.25,2.526 1.397,3.919 -1.36,2.269 -2.206,4.758 -2.5,7.464 -0.66,-0.072 -1.175,-0.73 -1.873,-0.804 -0.183,0.439 0.478,0.659 0.625,1.06 0.917,2.599 2.646,4.87 4.741,6.955 0.148,0.072 0.367,0.364 0.552,0.146 -0.479,-2.601 -2.537,-4.646 -2.059,-7.539 0,-0.256 0.331,-0.402 0.294,-0.696 -0.515,0.038 -0.882,0.551 -1.324,0.696 0.148,-2.234 0.809,-4.282 2.021,-6.003 0.771,1.537 1.028,3.294 1.324,5.05 l -0.075,0.257 c -0.478,-0.439 -0.955,-0.914 -1.505,-1.134 -0.149,-0.073 -0.515,-0.11 -0.441,0.146 0.734,0.987 1.101,2.122 1.36,3.295 0.771,2.89 0.257,6.33 2.5,8.562 0.221,0.074 0.478,0.625 0.735,0.221 l 0.185,-2.636 c 0.147,-3.259 -1.508,-6.77 0.221,-9.7 0.145,-0.331 0.622,-0.586 0.734,-0.913 -1.14,0.108 -1.8,1.206 -2.645,1.939 l -0.11,-0.147 c -0.48,-2.124 -0.771,-4.319 -1.507,-6.33 0.772,-1.246 2.168,-2.382 3.381,-3.224 0.55,2.71 1.654,5.234 2.426,7.834 1.286,3.806 1.983,8.712 0.109,12.446 -0.221,0.253 -0.184,0.841 -0.624,0.731 0.109,-1.024 0.588,-1.904 0.661,-2.966 0.22,-1.393 -0.294,-2.451 -1.102,-3.404 -0.111,-0.074 -0.33,-0.182 -0.44,-0.036 0.036,0.512 0.33,0.988 0.073,1.502 -0.587,3.075 -1.617,6.882 0.22,9.699 0.22,0.291 0.366,0.806 0.808,0.842 0.258,-2.124 0.59,-4.21 1.397,-6.115 1.874,-4.317 1.102,-9.697 -0.514,-13.904 -0.771,-2.381 -1.617,-4.76 -1.948,-7.359 l 0.441,-0.439 c 2.242,-1.133 4.484,-2.379 7.091,-2.673 3.015,-0.365 6.836,-0.769 8.969,1.904 0.624,0.769 0.662,2.049 0.294,2.965 -0.075,0.293 -0.368,0.549 -0.404,0.804 -1.287,2.308 -3.418,4.356 -3.088,7.25 0.699,0.108 1.361,-0.443 1.984,-0.624 -0.147,0.476 -0.22,0.95 -0.293,1.464 0,0.478 -0.036,0.987 0.222,1.318 0.845,-0.109 1.47,-0.768 2.167,-1.244 0.147,0.147 0.038,0.403 0.075,0.622 0.109,0.365 -0.075,1.099 0.552,0.951 0.955,-0.623 1.506,-1.537 2.241,-2.415 1.616,-2.747 0.441,-6.33 -0.626,-8.93 -0.478,-0.988 -1.322,-1.832 -1.948,-2.635 2.132,0.803 3.675,2.892 5.108,4.646 1.764,2.05 3.969,3.039 6.396,3.516 l 0.146,-0.147 c 0,-0.733 -0.33,-1.392 -0.515,-2.013 0.771,0 1.692,0.365 2.5,0.035 -0.182,-0.987 -0.808,-1.902 -1.506,-2.744 0.22,-0.255 0.625,-0.111 0.919,-0.147 0.331,-0.146 0.992,0.147 0.992,-0.401 -0.984,-1.766 -2.897,-2.533 -4.587,-3.193 z M 62.01,67.966 c -1.25,0.328 -2.793,0.291 -3.637,-0.844 -0.442,-0.438 -0.699,-1.022 -0.589,-1.755 -0.11,-0.293 0.258,-0.475 0.038,-0.694 -0.736,0.365 -0.882,1.245 -1.03,2.013 -0.588,-0.44 -0.366,-1.354 -0.402,-2.052 -0.222,-1.132 -0.809,-2.085 -1.472,-3.036 h -0.109 c -0.626,1.099 -0.847,2.782 -0.221,3.953 l -0.11,0.073 c -3.233,-2.453 1.104,-5.161 0.037,-8.091 -0.146,-0.181 -0.037,-0.586 -0.367,-0.549 -0.441,0.843 -1.544,1.208 -2.095,2.015 -1.103,1.39 -0.552,3.328 -0.111,4.866 0.111,0.696 0.661,1.283 0.587,1.979 -1.103,0 -2.206,0.072 -3.124,-0.402 -0.075,-0.038 -0.221,0.108 -0.185,0.181 1.103,1.464 2.72,2.382 4.703,2.161 2.648,0.035 4.412,2.269 7.058,2.379 0.514,-0.11 1.028,-0.732 1.249,-1.206 0.699,-0.664 1.838,-1.065 1.765,-2.126 H 63.849 C 63.552,67.6 62.743,67.857 62.01,67.966 Z M 47.677,62.329 c 0.514,0.329 1.286,0.293 1.875,0.22 -0.332,-1.133 -0.699,-2.269 -0.662,-3.55 0,-1.283 0.662,-2.271 0.991,-3.441 h -0.109 c -1.876,1.721 -2.28,4.175 -2.095,6.771 z M 71.785,52.264 c -1.616,-0.841 -3.602,-0.072 -5.035,0.659 -2.94,1.354 -5.292,-1.023 -7.975,-1.428 -2.279,-0.294 -4.263,0.622 -5.879,2.088 l -0.258,-0.588 -1.066,0.88 c -1.837,2.451 -2.866,5.819 -1.505,8.823 0.367,0.072 0.734,0.365 1.104,0.216 -0.333,-1.316 -0.147,-2.671 0.183,-3.915 0.771,-1.683 2.461,-3.514 4.41,-3.698 -0.222,-0.513 -0.993,-0.438 -1.545,-0.549 -0.257,0.035 -0.513,0.111 -0.661,-0.109 0.626,-0.878 1.508,-1.684 2.464,-2.011 1.616,-0.807 3.674,-0.329 4.998,0.802 2.204,2.38 -0.956,4.396 -1.985,6.369 -0.219,0.917 -0.479,1.941 -0.184,2.896 0.367,0.072 0.514,-0.294 0.846,-0.368 0.257,0.368 -0.037,1.1 0.552,1.134 2.72,-2.121 2.83,-5.635 2.389,-8.71 0.587,0.365 0.55,1.06 0.991,1.537 1.36,2.306 0.404,5.929 3.527,7.247 0.184,-0.147 0,-0.731 0.109,-0.987 0.367,0.292 0.699,0.731 1.214,0.771 0.257,-0.553 0.037,-1.285 0,-1.76 0.294,-0.11 0.513,0.44 0.88,0.108 -0.367,-3.367 -3.931,-5.305 -6.099,-7.757 1.874,0.586 3.638,1.757 5.917,1.499 1.175,-0.146 2.426,-0.658 2.939,-1.865 -0.108,-0.292 -0.625,-0.111 -0.881,-0.292 0.145,-0.333 0.513,-0.589 0.55,-0.992 z m -23.483,4.285 c 0.072,0.072 0.182,0.18 0.257,0.072 0.844,-1.721 2.24,-3.404 3.822,-4.688 3.675,-3.256 8.821,-2.634 13.524,-3.44 l 0.038,-0.216 c 0,-0.221 -0.075,-0.442 -0.333,-0.405 -1.431,0.329 -2.976,0.292 -4.482,0.405 l -0.074,-0.076 c 0.773,-0.404 1.616,-0.986 1.985,-1.867 0.036,-0.255 0.293,-0.513 0.147,-0.769 -0.441,0.292 -1.03,0.256 -1.544,0.404 -1.103,0.365 -2.132,1.354 -2.424,2.452 -1.25,0.107 -2.353,0.44 -3.492,0.731 -1.433,0.44 -2.756,1.354 -4.005,2.086 l 0.478,-1.536 c 0.735,-1.978 0.442,-4.65 2.755,-5.674 1.434,-0.915 1.324,-2.487 2.351,-3.55 v -0.294 c -1.615,0.55 -2.938,2.124 -3.527,3.66 L 53.705,43.77 c 0.183,-1.79 0.367,-3.586 1.175,-5.122 0.332,-0.62 0.918,-1.172 1.141,-1.828 -0.038,-0.294 -0.331,-0.148 -0.515,-0.185 -0.699,0.695 -1.066,1.574 -1.653,2.343 -0.368,-0.257 -0.294,-0.842 -0.808,-0.88 -0.148,0.111 -0.404,0.22 -0.333,0.438 1.103,1.394 0.186,3.111 0.11,4.686 l -0.22,0.22 c -0.22,-1.245 -0.587,-2.415 -1.434,-3.405 -0.185,-0.217 0.072,-0.878 -0.404,-0.656 -0.294,0.584 -0.11,1.39 -0.147,2.084 -0.257,1.979 2.095,3.076 1.543,5.017 -0.625,3.624 -2.535,6.735 -3.858,10.067 z m 41.47,20.65 h 0.89 V 1.276 h -0.89 z M 148.803,8.695 h -2.266 v 13.618 h 2.266 z m -21.165,14.756 c -0.468,0 -0.918,-0.147 -1.328,-0.374 l -0.771,1.68 c 0.695,0.374 1.388,0.598 2.342,0.598 1.594,0 2.473,-0.746 3.26,-2.761 l 3.932,-10.132 h -2.357 l -2.567,7.313 -2.811,-7.313 h -2.414 l 4.12,9.85 c -0.376,0.86 -0.771,1.139 -1.406,1.139 z m 10.058,-4.123 c 0,-0.951 0.842,-1.53 2.267,-1.53 0.879,0 1.687,0.169 2.265,0.392 v 0.559 c 0,1.232 -1.123,2.071 -2.621,2.071 -1.066,0 -1.909,-0.522 -1.909,-1.455 z m 1.275,3.19 c 1.497,0 2.527,-0.616 3.203,-1.418 v 1.212 h 2.248 v -5.84 c 0,-2.629 -1.424,-4.159 -4.346,-4.159 -1.609,0 -2.677,0.336 -3.765,0.822 l 0.616,1.81 c 0.903,-0.374 1.726,-0.616 2.828,-0.616 1.574,0 2.437,0.746 2.437,2.11 v 0.185 c -0.768,-0.241 -1.535,-0.409 -2.733,-0.409 -2.306,0 -4.012,1.044 -4.012,3.228 v 0.037 c 0,1.974 1.65,3.038 3.524,3.038 z M 104.748,11.343 h 3.352 c 1.706,0 2.717,0.766 2.717,2.164 v 0.037 c 0,1.325 -1.05,2.183 -2.697,2.183 h -3.372 z m 0,6.418 h 2.884 l 3.223,4.552 h 2.715 l -3.539,-4.944 c 1.836,-0.521 3.127,-1.809 3.127,-3.955 v -0.036 c 0,-1.139 -0.393,-2.108 -1.087,-2.818 -0.842,-0.82 -2.134,-1.306 -3.783,-1.306 h -5.845 v 13.058 h 2.305 z m 11.613,-0.392 c 0,-1.715 1.162,-3.135 2.978,-3.135 1.781,0 3.035,1.437 3.035,3.173 v 0.037 c 0,1.698 -1.164,3.135 -2.998,3.135 -1.762,0 -3.016,-1.457 -3.016,-3.172 v -0.038 z m 2.978,5.168 c 3.055,0 5.303,-2.333 5.303,-5.131 v -0.037 c 0,-2.818 -2.23,-5.11 -5.263,-5.11 -3.036,0 -5.285,2.33 -5.285,5.147 v 0.038 c -10e-4,2.797 2.228,5.093 5.245,5.093 z m 31.076,12.109 c -1.538,0 -2.454,0.802 -3.091,1.733 v -1.53 h -2.268 v 9.85 h 2.268 V 39.14 c 0,-1.528 0.917,-2.441 2.227,-2.441 1.35,0 2.117,0.875 2.117,2.404 v 5.596 h 2.266 v -6.268 c 0.001,-2.295 -1.289,-3.785 -3.519,-3.785 z m 8.147,-3.453 h -2.435 v 2.146 h 2.435 z m 6.928,13.731 c 1.933,0 3.073,-0.765 4.05,-1.846 l -1.369,-1.346 c -0.711,0.729 -1.496,1.231 -2.563,1.231 -1.745,0 -2.962,-1.417 -2.962,-3.171 v -0.037 c 0,-1.715 1.2,-3.135 2.847,-3.135 1.145,0 1.875,0.506 2.566,1.232 l 1.404,-1.511 c -0.916,-1.009 -2.077,-1.696 -3.952,-1.696 -2.958,0 -5.134,2.349 -5.134,5.148 v 0.037 c 0,2.8 2.176,5.094 5.113,5.094 z m 50.222,-5.131 c 0,1.885 -1.352,3.154 -2.866,3.154 -1.535,0 -2.847,-1.251 -2.847,-3.154 v -0.037 c 0,-1.96 1.292,-3.152 2.847,-3.152 1.518,0 2.866,1.249 2.866,3.152 z m -0.038,-3.414 c -0.71,-0.914 -1.742,-1.733 -3.371,-1.733 -2.36,0 -4.59,1.846 -4.59,5.111 v 0.037 c 0,3.267 2.268,5.113 4.59,5.113 1.609,0 2.641,-0.823 3.371,-1.848 V 44.7 h 2.268 V 31.081 h -2.268 z m -77.697,6.829 c -1.065,0 -1.91,-0.523 -1.91,-1.457 v -0.036 c 0,-0.95 0.845,-1.529 2.27,-1.529 0.878,0 1.686,0.168 2.264,0.392 v 0.561 c -0.002,1.229 -1.125,2.069 -2.624,2.069 z m 4.815,1.491 v -5.837 c 0,-2.631 -1.424,-4.159 -4.347,-4.159 -1.609,0 -2.676,0.334 -3.764,0.82 l 0.618,1.808 c 0.9,-0.372 1.724,-0.615 2.828,-0.615 1.573,0 2.437,0.745 2.437,2.109 v 0.185 c -0.771,-0.24 -1.536,-0.409 -2.733,-0.409 -2.304,0 -4.013,1.044 -4.013,3.229 v 0.038 c 0,1.976 1.65,3.041 3.524,3.041 1.496,0 2.529,-0.615 3.203,-1.418 v 1.211 h 2.246 v -0.003 z m -10.566,-2.182 c -0.448,0.225 -0.899,0.336 -1.402,0.336 -0.77,0 -1.221,-0.355 -1.221,-1.233 v -4.831 h 2.661 v -1.94 h -2.661 v -2.705 h -2.266 v 2.705 h -1.252 v 1.94 h 1.252 v 5.188 c 0,2.164 1.181,2.891 2.846,2.891 0.845,0 1.481,-0.187 2.041,-0.505 z m 26.26,2.182 v -9.85 h -2.267 v 9.85 z M 111.06,40.875 c 0,1.175 -0.956,1.794 -2.529,1.794 h -3.82 v -3.585 h 3.653 c 1.815,0 2.697,0.653 2.697,1.753 v 0.038 z m -6.349,-7.201 h 3.315 c 1.48,0 2.304,0.635 2.304,1.66 v 0.038 c 0,1.192 -0.994,1.771 -2.472,1.771 h -3.146 z m 6.05,4.236 c 0.974,-0.502 1.873,-1.346 1.873,-2.91 v -0.038 c 0,-0.876 -0.3,-1.585 -0.882,-2.165 -0.75,-0.747 -1.928,-1.156 -3.425,-1.156 h -5.884 v 13.061 h 6.07 c 2.921,0 4.85,-1.25 4.85,-3.582 v -0.036 c 0,-1.776 -1.066,-2.652 -2.602,-3.174 z m 85.975,3.228 c 0,1.229 -1.124,2.07 -2.622,2.07 -1.067,0 -1.911,-0.523 -1.911,-1.457 v -0.036 c 0,-0.95 0.844,-1.529 2.269,-1.529 0.879,0 1.683,0.168 2.266,0.392 z m -2.154,-6.436 c -1.609,0 -2.677,0.335 -3.765,0.82 l 0.617,1.808 c 0.899,-0.372 1.723,-0.615 2.829,-0.615 1.573,0 2.437,0.746 2.437,2.11 v 0.185 c -0.769,-0.241 -1.537,-0.411 -2.735,-0.411 -2.303,0 -4.009,1.045 -4.009,3.229 v 0.038 c 0,1.977 1.649,3.041 3.523,3.041 1.497,0 2.527,-0.616 3.205,-1.418 v 1.21 h 2.245 v -5.837 c 0.001,-2.631 -1.423,-4.16 -4.347,-4.16 z m 27.462,4.382 c 0.205,-1.53 1.177,-2.593 2.564,-2.593 1.498,0 2.359,1.139 2.511,2.593 z m 2.584,-4.438 c -2.828,0 -4.835,2.312 -4.835,5.129 v 0.038 c 0,3.042 2.213,5.111 5.079,5.111 1.813,0 3.107,-0.727 4.045,-1.846 l -1.33,-1.176 c -0.786,0.767 -1.572,1.176 -2.679,1.176 -1.461,0 -2.603,-0.898 -2.847,-2.501 h 7.269 c 0.017,-0.224 0.036,-0.428 0.036,-0.636 -0.002,-2.835 -1.591,-5.295 -4.738,-5.295 z m -101.71,5.186 c 0,1.695 -1.163,3.134 -2.999,3.134 -1.759,0 -3.016,-1.455 -3.016,-3.171 v -0.038 c 0,-1.715 1.162,-3.135 2.979,-3.135 1.78,0 3.035,1.439 3.035,3.174 v 0.036 z m -2.998,-5.186 c -3.034,0 -5.282,2.332 -5.282,5.148 v 0.038 c 0,2.799 2.229,5.094 5.246,5.094 3.053,0 5.301,-2.331 5.301,-5.132 v -0.037 c -0.002,-2.818 -2.233,-5.111 -5.265,-5.111 z m 116.564,0 c -1.538,0 -2.454,0.802 -3.091,1.733 v -1.53 h -2.267 v 9.85 h 2.267 V 39.14 c 0,-1.528 0.917,-2.441 2.229,-2.441 1.348,0 2.116,0.875 2.116,2.404 v 5.596 h 2.267 v -6.268 c 0,-2.295 -1.291,-3.785 -3.521,-3.785 z m -33.024,2.425 v -2.222 h -2.266 v 9.85 h 2.266 V 40.95 c 0,-2.61 1.387,-3.899 3.371,-3.899 h 0.13 v -2.387 c -1.738,-0.077 -2.882,0.931 -3.501,2.407 z m -15.319,0.336 h -5.583 v 1.996 h 3.354 v 2.444 c -0.807,0.596 -1.932,0.988 -3.167,0.988 -2.678,0 -4.458,-1.979 -4.458,-4.666 v -0.037 c 0,-2.499 1.836,-4.606 4.253,-4.606 1.668,0 2.658,0.539 3.671,1.398 l 1.46,-1.735 c -1.348,-1.139 -2.751,-1.771 -5.037,-1.771 -3.951,0 -6.76,3.097 -6.76,6.753 v 0.037 c 0,3.808 2.694,6.717 6.798,6.717 2.324,0 4.178,-0.932 5.47,-2.033 v -5.485 z m -61.925,18.32 h 2.436 v -2.144 h -2.436 z m 41.393,3.731 v -2.221 h -2.267 v 9.851 h 2.267 v -3.753 c 0,-2.611 1.387,-3.896 3.373,-3.896 h 0.132 v -2.392 c -1.743,-0.072 -2.887,0.936 -3.505,2.411 z m -6.817,3.339 c 0,1.529 -0.918,2.443 -2.23,2.443 -1.347,0 -2.114,-0.875 -2.114,-2.407 v -5.596 h -2.267 v 6.269 c 0,2.295 1.291,3.788 3.521,3.788 1.536,0 2.454,-0.803 3.093,-1.735 v 1.529 h 2.266 v -9.853 h -2.266 z m -56.045,-1.269 h 6.575 v -2.054 h -6.575 v -3.396 h 7.418 v -2.051 h -9.723 v 13.059 h 9.816 v -2.055 h -7.512 v -3.503 z m 45.349,0.652 c 0,1.942 -1.273,3.153 -2.828,3.153 -1.536,0 -2.884,-1.25 -2.884,-3.153 v -0.038 c 0,-1.884 1.348,-3.152 2.884,-3.152 1.535,0 2.828,1.252 2.828,3.152 z m -2.303,-5.147 c -1.593,0 -2.624,0.82 -3.355,1.848 v -5.412 h -2.266 v 13.618 h 2.266 v -1.528 c 0.696,0.912 1.726,1.735 3.355,1.735 2.36,0 4.606,-1.849 4.606,-5.114 v -0.037 c 0.001,-3.263 -2.264,-5.11 -4.606,-5.11 z m 32.067,4.663 c 0,1.585 -1.33,2.706 -2.904,2.706 -1.556,0 -2.809,-1.102 -2.809,-2.726 v -0.035 c 0,-1.623 1.235,-2.705 2.809,-2.705 1.572,0 2.904,1.1 2.904,2.723 z m -0.038,-2.986 c -0.768,-0.914 -1.797,-1.677 -3.464,-1.677 -2.304,0 -4.495,1.716 -4.495,4.627 v 0.035 c 0,2.893 2.17,4.606 4.495,4.606 1.631,0 2.658,-0.743 3.482,-1.807 v 0.765 c 0,1.978 -1.104,3.021 -3.128,3.021 -1.349,0 -2.473,-0.391 -3.521,-1.045 l -0.843,1.698 c 1.273,0.764 2.792,1.173 4.42,1.173 1.78,0 3.165,-0.43 4.065,-1.325 0.825,-0.821 1.255,-2.055 1.255,-3.712 v -7.835 h -2.269 z m 9.742,-1.677 c -1.538,0 -2.454,0.801 -3.09,1.734 v -5.299 h -2.271 v 13.618 h 2.271 v -5.559 c 0,-1.528 0.915,-2.442 2.227,-2.442 1.348,0 2.117,0.877 2.117,2.407 v 5.596 h 2.266 V 60.82 c -0.001,-2.294 -1.292,-3.787 -3.52,-3.787 z m -53.253,0 c -1.537,0 -2.453,0.801 -3.092,1.734 v -1.529 h -2.264 v 9.851 h 2.264 v -5.56 c 0,-1.529 0.918,-2.443 2.229,-2.443 1.351,0 2.117,0.877 2.117,2.409 v 5.596 h 2.268 v -6.269 c -0.001,-2.296 -1.296,-3.789 -3.522,-3.789 z m -14.799,5.147 c 0,1.885 -1.347,3.153 -2.865,3.153 -1.536,0 -2.847,-1.25 -2.847,-3.153 v -0.038 c 0,-1.957 1.291,-3.152 2.847,-3.152 1.519,0 2.865,1.252 2.865,3.152 z m -0.036,-3.413 c -0.714,-0.914 -1.743,-1.734 -3.373,-1.734 -2.361,0 -4.59,1.848 -4.59,5.109 v 0.037 c 0,3.266 2.266,5.114 4.59,5.114 1.61,0 2.64,-0.823 3.373,-1.849 v 1.642 h 2.266 V 53.468 h -2.266 z m 4.832,8.319 h 2.268 v -9.851 h -2.268 z"
     id="path2"
     style="fill:#686867;fill-opacity:1"
     inkscape:connector-curvature="0" /></svg>