<?xml version="1.0" encoding="UTF-8" standalone="no"?>
<!-- Created with Inkscape (http://www.inkscape.org/) -->

<svg
   version="1.1"
   id="svg2"
   xml:space="preserve"
   width="94.265472"
   height="26.514666"
   viewBox="0 0 94.265472 26.514665"
   sodipodi:docname="st-andrews-horizontal.svg"
   inkscape:version="1.1.1 (3bf5ae0d25, 2021-09-20)"
   xmlns:inkscape="http://www.inkscape.org/namespaces/inkscape"
   xmlns:sodipodi="http://sodipodi.sourceforge.net/DTD/sodipodi-0.dtd"
   xmlns="http://www.w3.org/2000/svg"
   xmlns:svg="http://www.w3.org/2000/svg"><defs
     id="defs6"><clipPath
       clipPathUnits="userSpaceOnUse"
       id="clipPath26"><path
         d="M 0,841.89 H 595.276 V 0 H 0 Z"
         id="path24" /></clipPath><clipPath
       clipPathUnits="userSpaceOnUse"
       id="clipPath34"><path
         d="m 463.606,786.527 h 96.945 v 39.772 h -96.945 z"
         id="path32" /></clipPath></defs><sodipodi:namedview
     id="namedview4"
     pagecolor="#ffffff"
     bordercolor="#666666"
     borderopacity="1.0"
     inkscape:pageshadow="2"
     inkscape:pageopacity="0.0"
     inkscape:pagecheckerboard="0"
     showgrid="false"
     inkscape:zoom="0.76435162"
     inkscape:cx="-234.83956"
     inkscape:cy="527.24425"
     inkscape:window-width="1718"
     inkscape:window-height="1368"
     inkscape:window-x="1713"
     inkscape:window-y="0"
     inkscape:window-maximized="0"
     inkscape:current-layer="g8" /><g
     id="g8"
     inkscape:groupmode="layer"
     inkscape:label="financial-statement-31-july-2020"
     transform="matrix(1.3333333,0,0,-1.3333333,-631.34157,1088.5013)"><g
       id="g18"><g
         id="g20"><g
           id="g22"
           clip-path="url(#clipPath26)"><g
             id="g28"><g
               id="g30"
               clip-path="url(#clipPath34)"><g
                 id="g36"
                 transform="translate(493.2264,799.7645)"><path
                   d="M 0,0 C 0.053,0.313 0.084,0.82 0.093,1.521 H 0.422 C 0.437,1.045 0.465,0.765 0.502,0.679 0.54,0.591 0.63,0.499 0.773,0.4 0.918,0.304 1.11,0.216 1.352,0.141 1.595,0.062 1.828,0.024 2.053,0.024 c 0.33,0 0.633,0.076 0.912,0.229 0.277,0.151 0.479,0.351 0.607,0.6 C 3.7,1.1 3.764,1.362 3.764,1.643 3.764,1.857 3.732,2.045 3.668,2.2 3.604,2.358 3.508,2.483 3.377,2.579 3.247,2.675 3.085,2.744 2.893,2.782 2.771,2.801 2.531,2.836 2.169,2.882 1.807,2.929 1.499,2.979 1.244,3.034 0.904,3.141 0.655,3.262 0.495,3.402 0.335,3.541 0.205,3.726 0.105,3.954 0.006,4.183 -0.044,4.428 -0.044,4.691 c 0,0.384 0.102,0.747 0.302,1.088 0.2,0.34 0.497,0.604 0.89,0.794 0.393,0.188 0.82,0.283 1.28,0.283 0.277,0 0.579,-0.037 0.908,-0.11 C 3.663,6.672 3.97,6.565 4.253,6.424 4.207,6.218 4.175,6.027 4.155,5.849 4.136,5.672 4.121,5.41 4.11,5.066 H 3.783 C 3.773,5.567 3.759,5.84 3.739,5.886 3.657,6.004 3.546,6.11 3.405,6.205 3.069,6.394 2.718,6.489 2.352,6.489 1.878,6.489 1.499,6.345 1.218,6.057 0.935,5.769 0.793,5.396 0.793,4.937 0.793,4.661 0.844,4.445 0.945,4.295 1.046,4.142 1.228,4.021 1.488,3.93 1.668,3.867 1.962,3.809 2.369,3.754 2.776,3.699 3.145,3.642 3.47,3.579 3.777,3.487 4.003,3.379 4.15,3.254 4.298,3.129 4.418,2.963 4.512,2.759 4.607,2.557 4.654,2.316 4.654,2.042 4.654,1.392 4.385,0.825 3.847,0.341 3.309,-0.14 2.611,-0.383 1.757,-0.383 1.111,-0.383 0.525,-0.254 0,0"
                   style="fill:#000000;fill-opacity:1;fill-rule:nonzero;stroke:none"
                   id="path38" /></g><g
                 id="g40"
                 transform="translate(498.3944,803.3602)"><path
                   d="M 0,0 V 0.207 C 0.314,0.332 0.564,0.441 0.749,0.538 V 2.027 C 1.088,2.145 1.363,2.27 1.576,2.404 L 1.692,2.306 C 1.657,2.036 1.618,1.437 1.576,0.516 1.837,0.512 1.993,0.509 2.045,0.509 2.074,0.509 2.243,0.513 2.55,0.52 2.719,0.523 2.846,0.528 2.931,0.538 L 2.965,0.505 2.862,0.05 C 2.657,0.054 2.468,0.054 2.295,0.054 c -0.173,0 -0.413,0 -0.719,-0.004 L 1.551,-1.942 c -0.01,-0.485 -0.006,-0.776 0.01,-0.871 0.016,-0.095 0.047,-0.175 0.092,-0.246 0.046,-0.071 0.105,-0.128 0.178,-0.17 0.074,-0.042 0.198,-0.075 0.373,-0.097 0.134,0 0.241,0.005 0.325,0.017 0.082,0.012 0.188,0.038 0.315,0.086 L 2.902,-3.414 C 2.748,-3.534 2.601,-3.662 2.457,-3.792 2.333,-3.838 2.218,-3.867 2.109,-3.883 2.003,-3.896 1.879,-3.904 1.738,-3.904 c -0.173,0 -0.309,0.019 -0.413,0.059 -0.102,0.039 -0.196,0.093 -0.281,0.164 -0.084,0.071 -0.155,0.16 -0.211,0.267 -0.056,0.106 -0.093,0.276 -0.109,0.509 0.004,0.221 0.009,0.466 0.02,0.729 0.003,0.051 0.005,0.109 0.005,0.17 V 0.025 H 0.548 C 0.385,0.025 0.202,0.017 0,0"
                   style="fill:#000000;fill-opacity:1;fill-rule:nonzero;stroke:none"
                   id="path42" /></g><g
                 id="g44"
                 transform="translate(506.0292,802.2694)"><path
                   d="M 0,0 H 2.467 L 1.248,2.946 Z m -2.28,-2.744 v 0.331 c 0.258,0.004 0.419,0.015 0.482,0.032 0.065,0.019 0.123,0.052 0.177,0.104 0.054,0.051 0.132,0.181 0.233,0.393 0.059,0.121 0.271,0.578 0.637,1.375 l 1.225,2.761 c 0.133,0.302 0.419,0.979 0.858,2.026 h 0.313 l 2.091,-4.909 c 0.341,-0.795 0.567,-1.295 0.678,-1.496 0.062,-0.116 0.129,-0.191 0.203,-0.225 0.072,-0.037 0.239,-0.057 0.497,-0.061 v -0.331 c -0.51,0.03 -0.866,0.047 -1.068,0.047 L 2.469,-2.744 v 0.331 c 0.365,0.008 0.587,0.019 0.666,0.036 0.077,0.015 0.13,0.039 0.158,0.071 0.028,0.03 0.042,0.068 0.042,0.115 0,0.072 -0.022,0.165 -0.068,0.277 L 2.665,-0.415 H -0.168 L -0.7,-1.672 c -0.095,-0.225 -0.143,-0.391 -0.143,-0.496 0,-0.045 0.014,-0.083 0.04,-0.112 0.035,-0.043 0.091,-0.071 0.166,-0.087 0.121,-0.027 0.333,-0.042 0.637,-0.046 v -0.331 c -0.552,0.029 -0.965,0.043 -1.239,0.043 -0.318,0 -0.664,-0.014 -1.041,-0.043"
                   style="fill:#000000;fill-opacity:1;fill-rule:nonzero;stroke:none"
                   id="path46" /></g><g
                 id="g48"
                 transform="translate(511.5155,799.5254)"><path
                   d="M 0,0 V 0.279 L 0.468,0.284 C 0.537,0.287 0.59,0.298 0.628,0.319 0.665,0.342 0.694,0.368 0.714,0.4 0.75,0.467 0.773,0.58 0.782,0.747 c 0,0.042 0.009,0.513 0.026,1.405 V 2.734 C 0.808,2.997 0.803,3.276 0.793,3.576 0.782,3.768 0.768,3.884 0.746,3.919 0.726,3.955 0.688,3.981 0.637,4.001 0.584,4.018 0.372,4.026 0,4.022 v 0.279 c 0.659,0.092 1.14,0.21 1.443,0.358 0.066,0.03 0.11,0.049 0.132,0.049 0.024,0 0.042,-0.011 0.055,-0.026 C 1.643,4.667 1.648,4.643 1.648,4.609 1.648,4.585 1.647,4.559 1.644,4.53 1.635,4.414 1.625,4.167 1.614,3.787 l 0.91,0.779 c 0.268,0.097 0.522,0.147 0.76,0.147 0.264,0 0.514,-0.054 0.751,-0.162 C 4.271,4.443 4.449,4.307 4.568,4.143 4.687,3.98 4.766,3.776 4.806,3.527 4.828,3.381 4.84,2.972 4.84,2.299 V 1.434 C 4.84,1.009 4.851,0.721 4.874,0.567 4.89,0.469 4.915,0.401 4.95,0.363 4.984,0.326 5.037,0.302 5.109,0.293 L 5.632,0.279 V 0 C 5.312,0.022 5.047,0.033 4.835,0.033 4.651,0.033 4.35,0.022 3.925,0 3.971,0.806 3.993,1.314 3.993,1.526 V 2.348 C 3.993,2.86 3.974,3.197 3.935,3.355 3.879,3.575 3.753,3.751 3.558,3.885 3.361,4.018 3.126,4.085 2.848,4.085 2.603,4.085 2.38,4.027 2.178,3.912 1.976,3.797 1.831,3.662 1.745,3.511 1.658,3.359 1.614,3.104 1.614,2.747 V 2.152 C 1.631,1.305 1.64,0.847 1.64,0.776 1.645,0.615 1.666,0.493 1.698,0.421 1.711,0.392 1.73,0.365 1.758,0.344 1.784,0.323 1.825,0.306 1.88,0.293 1.9,0.29 2.08,0.285 2.423,0.279 V 0 C 2.024,0.022 1.664,0.033 1.341,0.033 1.066,0.033 0.62,0.022 0,0"
                   style="fill:#000000;fill-opacity:1;fill-rule:nonzero;stroke:none"
                   id="path50" /></g><g
                 id="g52"
                 transform="translate(521.3417,803.0936)"><path
                   d="M 0,0 C -0.223,0.244 -0.454,0.421 -0.698,0.534 -0.941,0.646 -1.18,0.703 -1.415,0.703 -1.682,0.703 -1.929,0.634 -2.153,0.496 -2.378,0.361 -2.55,0.153 -2.669,-0.122 -2.789,-0.4 -2.848,-0.732 -2.848,-1.12 c 0,-0.597 0.148,-1.061 0.445,-1.397 0.296,-0.337 0.654,-0.504 1.071,-0.504 0.219,0 0.415,0.045 0.587,0.137 0.174,0.092 0.325,0.225 0.456,0.401 0.13,0.175 0.214,0.371 0.25,0.587 C -0.013,-1.754 0,-1.4 0,-0.835 Z m -0.808,3.077 v 0.279 c 0.363,0.039 0.668,0.085 0.918,0.139 0.249,0.053 0.493,0.12 0.732,0.198 L 0.905,3.649 C 0.893,3.372 0.877,2.837 0.861,2.044 L 0.842,1.261 v -3.065 c 0,-0.33 0.005,-0.619 0.016,-0.863 C 0.87,-2.909 0.891,-3.055 0.92,-3.102 0.949,-3.149 0.998,-3.188 1.066,-3.217 1.135,-3.246 1.339,-3.275 1.679,-3.305 V -3.568 C 1.28,-3.546 1,-3.535 0.837,-3.535 c -0.141,0 -0.428,-0.011 -0.862,-0.033 0.01,0.224 0.018,0.527 0.025,0.909 -0.131,-0.096 -0.307,-0.237 -0.526,-0.425 -0.221,-0.188 -0.393,-0.345 -0.516,-0.466 -0.262,-0.066 -0.491,-0.096 -0.69,-0.096 -0.369,0 -0.709,0.091 -1.018,0.272 -0.311,0.183 -0.549,0.448 -0.717,0.796 -0.168,0.349 -0.253,0.737 -0.253,1.172 0,0.326 0.052,0.635 0.154,0.927 0.104,0.292 0.234,0.517 0.39,0.678 0.088,0.092 0.288,0.23 0.602,0.417 0.313,0.185 0.566,0.321 0.76,0.404 0.195,0.083 0.406,0.125 0.634,0.125 0.205,0 0.407,-0.028 0.605,-0.078 C -0.378,1.017 -0.187,0.941 0,0.836 v 1.287 c 0,0.453 -0.02,0.729 -0.059,0.826 -0.013,0.036 -0.038,0.062 -0.073,0.079 -0.065,0.029 -0.291,0.045 -0.676,0.049"
                   style="fill:#000000;fill-opacity:1;fill-rule:nonzero;stroke:none"
                   id="path54" /></g><g
                 id="g56"
                 transform="translate(523.5624,799.5254)"><path
                   d="M 0,0 V 0.279 C 0.372,0.285 0.572,0.292 0.6,0.298 0.657,0.309 0.698,0.323 0.726,0.344 0.755,0.365 0.776,0.395 0.793,0.435 0.826,0.51 0.846,0.629 0.852,0.787 0.868,1.659 0.876,2.113 0.876,2.152 V 2.734 C 0.876,2.997 0.872,3.276 0.862,3.576 0.855,3.768 0.841,3.884 0.82,3.919 0.799,3.955 0.762,3.981 0.708,4.001 0.654,4.018 0.44,4.026 0.069,4.022 v 0.279 c 0.659,0.092 1.141,0.21 1.444,0.358 0.065,0.03 0.109,0.049 0.132,0.049 0.023,0 0.04,-0.011 0.054,-0.026 C 1.712,4.667 1.719,4.643 1.719,4.609 1.719,4.585 1.717,4.559 1.713,4.53 1.697,4.333 1.687,4.023 1.684,3.605 1.831,3.776 1.967,3.943 2.09,4.109 2.214,4.276 2.304,4.384 2.359,4.434 2.457,4.518 2.57,4.585 2.697,4.636 2.824,4.685 2.956,4.713 3.093,4.713 3.23,4.713 3.366,4.682 3.5,4.623 L 3.528,4.556 C 3.479,4.122 3.452,3.739 3.445,3.409 H 3.225 C 3.15,3.567 3.063,3.682 2.964,3.752 2.864,3.823 2.739,3.86 2.59,3.86 2.338,3.86 2.125,3.756 1.948,3.549 1.772,3.343 1.684,3.031 1.684,2.618 V 2.113 C 1.684,1.897 1.692,1.506 1.708,0.934 1.712,0.73 1.721,0.602 1.733,0.547 1.746,0.492 1.763,0.451 1.784,0.427 1.806,0.402 1.841,0.382 1.89,0.367 1.987,0.338 2.252,0.309 2.683,0.279 V 0 C 2.108,0.022 1.619,0.033 1.215,0.033 0.796,0.033 0.392,0.022 0,0"
                   style="fill:#000000;fill-opacity:1;fill-rule:nonzero;stroke:none"
                   id="path58" /></g><g
                 id="g60"
                 transform="translate(528.3104,802.285)"><path
                   d="m 0,0 c 0.092,-0.009 0.265,-0.02 0.519,-0.029 0.487,-0.017 0.821,-0.026 1.003,-0.026 0.434,0 0.72,0.009 0.857,0.026 0.003,0.076 0.005,0.137 0.005,0.181 0,0.514 -0.105,0.894 -0.313,1.134 C 1.861,1.528 1.583,1.65 1.233,1.65 0.865,1.65 0.568,1.517 0.343,1.253 0.118,0.987 0.004,0.57 0,0 M 3.137,-2 2.98,-2.354 C 2.756,-2.495 2.591,-2.587 2.486,-2.631 2.333,-2.7 2.157,-2.759 1.961,-2.808 1.763,-2.854 1.555,-2.878 1.337,-2.878 c -0.432,0 -0.821,0.09 -1.17,0.27 -0.35,0.178 -0.621,0.448 -0.815,0.804 -0.194,0.358 -0.292,0.776 -0.292,1.257 0,0.375 0.052,0.711 0.155,1.014 0.103,0.304 0.22,0.524 0.349,0.669 0.096,0.104 0.243,0.222 0.441,0.359 0.199,0.134 0.396,0.242 0.592,0.321 0.258,0.106 0.537,0.16 0.838,0.16 C 1.8,1.976 2.13,1.893 2.425,1.728 2.721,1.562 2.936,1.333 3.074,1.046 3.211,0.759 3.279,0.437 3.279,0.074 3.279,-0.017 3.271,-0.13 3.255,-0.259 3.021,-0.306 2.81,-0.334 2.625,-0.348 2.272,-0.374 1.921,-0.388 1.569,-0.388 H 0 c 0.007,-0.466 0.088,-0.845 0.242,-1.133 0.155,-0.291 0.369,-0.504 0.642,-0.641 0.272,-0.138 0.555,-0.206 0.848,-0.206 0.2,0 0.398,0.03 0.595,0.096 0.197,0.065 0.442,0.181 0.733,0.355 z"
                   style="fill:#000000;fill-opacity:1;fill-rule:nonzero;stroke:none"
                   id="path62" /></g><g
                 id="g64"
                 transform="translate(534.0213,799.4696)"><path
                   d="M 0,0 -0.206,0.682 -0.661,2.194 C -0.791,2.635 -0.924,3.057 -1.06,3.465 -1.195,3.873 -1.284,4.107 -1.329,4.17 -1.373,4.232 -1.427,4.276 -1.49,4.303 -1.554,4.328 -1.71,4.353 -1.958,4.377 v 0.278 c 0.359,-0.023 0.745,-0.033 1.155,-0.033 0.438,0 0.845,0.01 1.223,0.033 V 4.377 C 0.117,4.374 -0.08,4.361 -0.172,4.343 -0.233,4.328 -0.278,4.306 -0.306,4.271 -0.333,4.236 -0.348,4.195 -0.348,4.151 c 0,-0.075 0.047,-0.277 0.142,-0.603 L 0.249,1.971 C 0.324,1.707 0.415,1.421 0.523,1.114 l 0.372,0.851 0.719,1.609 c 0.17,0.38 0.33,0.766 0.481,1.154 H 2.334 C 2.55,4.132 2.696,3.737 2.774,3.545 L 3.337,2.127 C 3.529,1.651 3.674,1.293 3.772,1.052 L 4.139,2.016 C 4.376,2.636 4.562,3.164 4.695,3.603 4.771,3.84 4.808,4.008 4.808,4.107 4.808,4.198 4.776,4.265 4.713,4.306 4.649,4.346 4.437,4.369 4.079,4.377 V 4.655 C 4.575,4.632 4.918,4.622 5.107,4.622 c 0.229,0 0.54,0.01 0.932,0.033 V 4.377 C 5.85,4.374 5.723,4.354 5.657,4.324 5.592,4.294 5.534,4.241 5.485,4.17 5.4,4.061 5.269,3.799 5.089,3.387 L 4.575,2.162 4.356,1.614 C 4.314,1.506 4.187,1.174 3.979,0.619 3.887,0.385 3.818,0.178 3.773,0 H 3.313 L 3.078,0.612 1.962,3.416 1.492,2.405 0.94,1.177 C 0.812,0.892 0.709,0.651 0.632,0.451 L 0.47,0 Z"
                   style="fill:#000000;fill-opacity:1;fill-rule:nonzero;stroke:none"
                   id="path66" /></g><g
                 id="g68"
                 transform="translate(540.7303,801.0018)"><path
                   d="m 0,0 h 0.294 c 0.003,-0.188 0.013,-0.338 0.028,-0.45 0.018,-0.109 0.045,-0.22 0.085,-0.325 0.039,-0.105 0.099,-0.196 0.181,-0.27 0.082,-0.072 0.171,-0.13 0.268,-0.172 0.095,-0.038 0.194,-0.066 0.293,-0.079 0.1,-0.013 0.251,-0.018 0.455,-0.018 0.333,0 0.606,0.085 0.821,0.261 0.213,0.178 0.321,0.419 0.321,0.728 0,0.136 -0.034,0.257 -0.1,0.361 C 2.577,0.138 2.482,0.221 2.356,0.279 2.23,0.338 1.96,0.416 1.544,0.509 1.129,0.604 0.861,0.672 0.74,0.717 0.558,0.783 0.412,0.866 0.304,0.966 0.196,1.062 0.11,1.187 0.047,1.337 -0.018,1.486 -0.049,1.65 -0.049,1.826 -0.049,2.084 0.019,2.32 0.154,2.538 0.29,2.754 0.503,2.932 0.794,3.066 1.085,3.201 1.402,3.27 1.744,3.27 1.951,3.27 2.19,3.241 2.461,3.184 2.732,3.126 2.952,3.055 3.122,2.971 3.1,2.608 3.083,2.241 3.073,1.865 H 2.794 C 2.778,2.104 2.759,2.261 2.738,2.334 2.717,2.409 2.688,2.476 2.652,2.536 2.616,2.595 2.554,2.657 2.466,2.725 2.377,2.791 2.264,2.85 2.125,2.903 1.986,2.954 1.815,2.979 1.612,2.979 1.324,2.979 1.093,2.896 0.919,2.726 0.743,2.558 0.656,2.358 0.656,2.129 0.656,2.003 0.682,1.893 0.732,1.801 0.782,1.711 0.851,1.636 0.936,1.579 1.021,1.521 1.14,1.471 1.293,1.425 l 0.814,-0.2 C 2.519,1.12 2.802,1.03 2.957,0.955 3.112,0.879 3.237,0.763 3.332,0.604 3.427,0.446 3.475,0.257 3.475,0.036 c 0,-0.44 -0.182,-0.825 -0.547,-1.153 -0.364,-0.329 -0.852,-0.492 -1.463,-0.492 -0.28,0 -0.654,0.043 -1.122,0.129 -0.258,0.046 -0.397,0.081 -0.416,0.1 -0.014,0.01 -0.02,0.026 -0.02,0.05 0,0.021 0.003,0.051 0.01,0.083 0.029,0.14 0.049,0.276 0.059,0.41 C -0.015,-0.703 -0.007,-0.424 0,0"
                   style="fill:#000000;fill-opacity:1;fill-rule:nonzero;stroke:none"
                   id="path70" /></g><g
                 id="g72"
                 transform="translate(493.0252,815.2172)"><path
                   d="M 0,0 V 0.248 C 0.421,0.23 0.812,0.222 1.174,0.222 c 0.366,0 0.73,0.008 1.092,0.026 V 0 C 1.963,-0.005 1.778,-0.019 1.711,-0.04 1.645,-0.062 1.6,-0.093 1.576,-0.131 1.543,-0.183 1.522,-0.309 1.515,-0.507 1.512,-0.558 1.505,-0.925 1.495,-1.606 v -1.432 c 0,-0.556 0.036,-0.921 0.108,-1.098 0.07,-0.176 0.182,-0.323 0.338,-0.439 0.119,-0.088 0.279,-0.157 0.48,-0.211 0.201,-0.053 0.427,-0.079 0.674,-0.079 0.29,0 0.547,0.035 0.771,0.106 0.225,0.072 0.393,0.157 0.506,0.26 0.111,0.101 0.196,0.216 0.251,0.342 0.056,0.127 0.096,0.3 0.12,0.52 0.026,0.221 0.037,0.5 0.037,0.839 v 1.192 c 0,0.351 -0.005,0.694 -0.018,1.03 -0.006,0.245 -0.023,0.39 -0.053,0.435 C 4.679,-0.096 4.631,-0.062 4.565,-0.04 4.498,-0.019 4.312,-0.005 4.009,0 V 0.248 C 4.435,0.23 4.745,0.222 4.941,0.222 c 0.178,0 0.5,0.008 0.963,0.026 V 0 C 5.598,-0.005 5.412,-0.019 5.347,-0.04 5.281,-0.062 5.236,-0.093 5.21,-0.131 5.18,-0.183 5.16,-0.309 5.152,-0.507 5.15,-0.558 5.145,-0.925 5.137,-1.607 V -2.902 C 5.137,-3.54 5.092,-3.986 5.003,-4.238 4.914,-4.491 4.751,-4.715 4.513,-4.908 4.335,-5.053 4.105,-5.165 3.825,-5.245 c -0.279,-0.08 -0.591,-0.12 -0.931,-0.12 -0.398,0 -0.743,0.047 -1.035,0.141 -0.292,0.094 -0.514,0.218 -0.667,0.372 -0.152,0.153 -0.256,0.31 -0.313,0.47 -0.072,0.212 -0.108,0.567 -0.108,1.065 v 1.71 c 0,0.352 -0.004,0.695 -0.012,1.031 -0.008,0.245 -0.026,0.39 -0.056,0.435 C 0.673,-0.096 0.626,-0.062 0.56,-0.04 0.494,-0.019 0.308,-0.005 0,0"
                   style="fill:#000000;fill-opacity:1;fill-rule:nonzero;stroke:none"
                   id="path74" /></g><g
                 id="g76"
                 transform="translate(499.1883,809.9642)"><path
                   d="M 0,0 V 0.221 L 0.37,0.225 C 0.426,0.228 0.467,0.237 0.498,0.254 0.527,0.271 0.55,0.292 0.566,0.317 0.595,0.37 0.612,0.461 0.62,0.593 c 0,0.033 0.007,0.404 0.02,1.112 V 2.166 C 0.64,2.372 0.636,2.595 0.628,2.832 0.62,2.984 0.608,3.075 0.591,3.104 0.574,3.132 0.546,3.153 0.504,3.168 0.463,3.182 0.294,3.188 0,3.185 v 0.22 C 0.523,3.478 0.903,3.572 1.144,3.688 1.195,3.714 1.23,3.728 1.247,3.728 1.266,3.728 1.28,3.721 1.29,3.707 1.301,3.694 1.306,3.675 1.306,3.65 1.306,3.632 1.305,3.61 1.302,3.587 1.295,3.494 1.286,3.298 1.278,2.999 L 2,3.614 C 2.211,3.692 2.411,3.73 2.6,3.73 2.809,3.73 3.008,3.688 3.194,3.604 3.381,3.518 3.523,3.41 3.617,3.281 3.711,3.152 3.773,2.989 3.805,2.793 3.822,2.677 3.832,2.353 3.832,1.82 V 1.136 C 3.832,0.8 3.841,0.57 3.858,0.45 3.872,0.372 3.892,0.318 3.919,0.289 3.946,0.259 3.988,0.241 4.045,0.233 L 4.459,0.221 V 0 C 4.206,0.019 3.995,0.027 3.828,0.027 3.684,0.027 3.443,0.019 3.108,0 3.144,0.639 3.161,1.041 3.161,1.209 v 0.65 C 3.161,2.266 3.146,2.531 3.115,2.658 3.071,2.831 2.972,2.971 2.816,3.076 2.661,3.183 2.475,3.235 2.255,3.235 2.062,3.235 1.885,3.189 1.725,3.098 1.564,3.006 1.45,2.9 1.382,2.78 1.312,2.66 1.278,2.458 1.278,2.174 V 1.705 C 1.292,1.033 1.299,0.67 1.299,0.616 1.304,0.487 1.319,0.393 1.345,0.334 1.356,0.31 1.371,0.29 1.392,0.273 1.412,0.257 1.444,0.243 1.489,0.233 1.505,0.229 1.648,0.226 1.918,0.221 V 0 C 1.603,0.019 1.317,0.027 1.063,0.027 0.845,0.027 0.49,0.019 0,0"
                   style="fill:#000000;fill-opacity:1;fill-rule:nonzero;stroke:none"
                   id="path78" /></g><g
                 id="g80"
                 transform="translate(504.8172,815.4193)"><path
                   d="m 0,0 c 0.122,0 0.225,-0.043 0.309,-0.128 0.083,-0.085 0.126,-0.188 0.126,-0.31 0,-0.119 -0.043,-0.22 -0.128,-0.306 C 0.222,-0.829 0.119,-0.872 0,-0.872 c -0.121,0 -0.224,0.043 -0.309,0.128 -0.085,0.086 -0.128,0.187 -0.128,0.306 0,0.122 0.043,0.225 0.128,0.31 C -0.224,-0.043 -0.121,0 0,0 m -0.945,-2.267 v 0.221 c 0.501,0.057 0.923,0.165 1.263,0.325 L 0.403,-1.782 C 0.383,-2.333 0.373,-2.753 0.373,-3.046 V -3.75 c 0.013,-0.672 0.02,-1.035 0.023,-1.089 0.003,-0.129 0.016,-0.223 0.043,-0.282 0.012,-0.025 0.029,-0.044 0.05,-0.061 0.02,-0.016 0.051,-0.03 0.093,-0.041 0.015,-0.003 0.158,-0.006 0.43,-0.011 v -0.221 c -0.393,0.019 -0.706,0.027 -0.942,0.027 -0.207,0 -0.545,-0.008 -1.015,-0.027 v 0.221 l 0.371,0.004 c 0.054,0.003 0.097,0.012 0.127,0.029 0.029,0.016 0.052,0.038 0.068,0.063 0.028,0.053 0.046,0.144 0.054,0.276 0,0.033 0.007,0.404 0.02,1.112 v 0.682 c 0,0.384 -0.013,0.613 -0.039,0.685 -0.016,0.039 -0.044,0.069 -0.084,0.087 -0.04,0.02 -0.213,0.029 -0.517,0.029"
                   style="fill:#000000;fill-opacity:1;fill-rule:nonzero;stroke:none"
                   id="path82" /></g><g
                 id="g84"
                 transform="translate(507.9823,809.9252)"><path
                   d="m 0,0 c -0.101,0.264 -0.171,0.441 -0.209,0.531 l -0.318,0.74 -0.793,1.848 c -0.052,0.116 -0.097,0.194 -0.132,0.233 -0.036,0.039 -0.076,0.063 -0.12,0.073 -0.036,0.01 -0.132,0.018 -0.287,0.023 v 0.233 c 0.428,-0.018 0.741,-0.028 0.937,-0.028 0.217,0 0.515,0.01 0.892,0.028 V 3.448 C -0.31,3.44 -0.474,3.423 -0.523,3.394 -0.571,3.366 -0.597,3.327 -0.597,3.278 c 0,-0.078 0.052,-0.244 0.156,-0.5 L 0.031,1.602 0.144,1.339 C 0.27,1.032 0.357,0.826 0.404,0.724 L 0.79,1.602 C 0.814,1.653 0.932,1.943 1.143,2.472 1.267,2.78 1.35,3.015 1.391,3.177 1.401,3.222 1.407,3.26 1.407,3.293 1.407,3.337 1.39,3.368 1.356,3.387 1.294,3.42 1.129,3.44 0.86,3.448 V 3.681 C 1.245,3.663 1.491,3.653 1.6,3.653 c 0.09,0 0.337,0.01 0.74,0.028 V 3.448 C 2.18,3.44 2.073,3.422 2.02,3.393 1.968,3.362 1.916,3.302 1.863,3.208 1.828,3.146 1.687,2.867 1.445,2.371 L 1.073,1.577 C 1.009,1.435 0.785,0.909 0.402,0 Z"
                   style="fill:#000000;fill-opacity:1;fill-rule:nonzero;stroke:none"
                   id="path86" /></g><g
                 id="g88"
                 transform="translate(511.4305,812.1498)"><path
                   d="m 0,0 c 0.072,-0.008 0.209,-0.016 0.41,-0.023 0.385,-0.013 0.65,-0.02 0.795,-0.02 0.343,0 0.569,0.007 0.678,0.02 0.002,0.062 0.004,0.109 0.004,0.143 0,0.407 -0.083,0.708 -0.248,0.898 C 1.474,1.21 1.253,1.305 0.977,1.305 0.685,1.305 0.449,1.2 0.27,0.992 0.093,0.782 0.003,0.451 0,0 M 2.483,-1.584 2.359,-1.863 C 2.181,-1.975 2.051,-2.048 1.968,-2.084 1.847,-2.139 1.707,-2.185 1.551,-2.222 1.395,-2.26 1.23,-2.278 1.058,-2.278 c -0.341,0 -0.65,0.071 -0.926,0.213 -0.277,0.142 -0.491,0.354 -0.646,0.637 -0.153,0.284 -0.23,0.613 -0.23,0.994 0,0.296 0.041,0.565 0.122,0.803 0.082,0.239 0.174,0.416 0.277,0.529 0.075,0.083 0.192,0.178 0.349,0.286 C 0.162,1.29 0.318,1.375 0.473,1.436 0.677,1.522 0.897,1.564 1.135,1.564 1.424,1.564 1.686,1.499 1.92,1.367 2.153,1.235 2.324,1.056 2.433,0.829 2.541,0.602 2.596,0.344 2.596,0.058 2.596,-0.015 2.589,-0.103 2.576,-0.205 2.391,-0.241 2.224,-0.266 2.077,-0.275 1.799,-0.296 1.52,-0.307 1.242,-0.307 H 0 c 0.006,-0.37 0.069,-0.67 0.191,-0.899 0.123,-0.229 0.292,-0.398 0.508,-0.507 0.216,-0.107 0.44,-0.163 0.672,-0.163 0.157,0 0.315,0.026 0.471,0.077 0.156,0.052 0.349,0.145 0.579,0.28 z"
                   style="fill:#000000;fill-opacity:1;fill-rule:nonzero;stroke:none"
                   id="path90" /></g><g
                 id="g92"
                 transform="translate(514.4715,809.9642)"><path
                   d="m 0,0 v 0.221 c 0.294,0.005 0.452,0.011 0.476,0.015 0.045,0.008 0.077,0.021 0.099,0.037 0.022,0.017 0.039,0.04 0.053,0.072 0.025,0.059 0.041,0.152 0.046,0.279 0.013,0.689 0.019,1.05 0.019,1.081 V 2.166 C 0.693,2.372 0.69,2.595 0.682,2.832 0.677,2.984 0.666,3.075 0.649,3.104 0.632,3.132 0.603,3.153 0.561,3.168 0.517,3.182 0.349,3.188 0.055,3.185 v 0.22 c 0.521,0.073 0.902,0.167 1.142,0.283 0.052,0.026 0.087,0.04 0.105,0.04 0.018,0 0.032,-0.007 0.043,-0.021 C 1.354,3.694 1.36,3.675 1.36,3.65 1.36,3.632 1.358,3.61 1.357,3.587 1.343,3.43 1.335,3.186 1.333,2.855 1.449,2.989 1.557,3.122 1.654,3.254 1.753,3.386 1.823,3.472 1.868,3.51 c 0.077,0.067 0.166,0.121 0.267,0.161 0.1,0.04 0.206,0.059 0.313,0.059 0.11,0 0.216,-0.023 0.323,-0.069 L 2.794,3.608 C 2.755,3.264 2.732,2.961 2.728,2.701 H 2.554 C 2.494,2.824 2.425,2.915 2.346,2.972 2.268,3.028 2.168,3.058 2.05,3.058 1.851,3.058 1.682,2.975 1.542,2.812 1.402,2.646 1.333,2.4 1.333,2.073 V 1.674 C 1.333,1.503 1.34,1.192 1.353,0.74 1.354,0.58 1.361,0.479 1.371,0.434 1.382,0.39 1.396,0.358 1.412,0.339 1.43,0.32 1.457,0.304 1.495,0.291 1.573,0.268 1.782,0.244 2.123,0.221 V 0 C 1.669,0.019 1.281,0.027 0.961,0.027 0.63,0.027 0.311,0.019 0,0"
                   style="fill:#000000;fill-opacity:1;fill-rule:nonzero;stroke:none"
                   id="path94" /></g><g
                 id="g96"
                 transform="translate(517.7801,811.1351)"><path
                   d="M 0,0 H 0.232 C 0.235,-0.151 0.242,-0.27 0.256,-0.356 0.269,-0.444 0.291,-0.53 0.321,-0.614 0.353,-0.698 0.4,-0.77 0.465,-0.828 0.53,-0.886 0.601,-0.931 0.677,-0.963 0.753,-0.996 0.831,-1.017 0.91,-1.027 c 0.078,-0.01 0.198,-0.016 0.359,-0.016 0.264,0 0.48,0.069 0.65,0.21 0.17,0.14 0.255,0.33 0.255,0.572 0,0.109 -0.027,0.205 -0.08,0.287 C 2.041,0.109 1.965,0.174 1.865,0.221 1.765,0.267 1.551,0.327 1.223,0.402 0.894,0.477 0.682,0.531 0.586,0.565 0.441,0.619 0.326,0.685 0.24,0.762 0.155,0.84 0.087,0.938 0.037,1.058 c -0.051,0.118 -0.076,0.247 -0.076,0.386 0,0.205 0.054,0.392 0.161,0.564 0.108,0.172 0.276,0.311 0.507,0.418 0.23,0.107 0.48,0.161 0.752,0.161 0.163,0 0.352,-0.022 0.566,-0.067 C 2.162,2.475 2.337,2.418 2.472,2.351 2.454,2.065 2.441,1.772 2.433,1.475 H 2.212 C 2.199,1.664 2.184,1.788 2.167,1.847 2.15,1.906 2.128,1.96 2.1,2.007 2.071,2.053 2.022,2.103 1.951,2.155 1.882,2.208 1.792,2.255 1.682,2.296 1.572,2.338 1.437,2.358 1.276,2.358 1.048,2.358 0.865,2.291 0.727,2.157 0.588,2.022 0.519,1.865 0.519,1.685 0.519,1.584 0.539,1.497 0.579,1.425 0.62,1.353 0.673,1.294 0.74,1.249 0.808,1.203 0.901,1.162 1.023,1.127 L 1.668,0.968 C 1.993,0.885 2.218,0.814 2.341,0.755 2.464,0.695 2.563,0.603 2.638,0.478 2.713,0.353 2.751,0.202 2.751,0.026 2.751,-0.322 2.607,-0.627 2.318,-0.886 2.029,-1.146 1.644,-1.275 1.16,-1.275 c -0.223,0 -0.518,0.034 -0.888,0.1 -0.205,0.039 -0.314,0.067 -0.33,0.081 -0.011,0.009 -0.015,0.022 -0.015,0.039 0,0.019 0.002,0.04 0.008,0.067 0.023,0.111 0.038,0.22 0.046,0.325 C -0.012,-0.557 -0.005,-0.336 0,0"
                   style="fill:#000000;fill-opacity:1;fill-rule:nonzero;stroke:none"
                   id="path98" /></g><g
                 id="g100"
                 transform="translate(521.9061,815.4193)"><path
                   d="m 0,0 c 0.121,0 0.224,-0.043 0.308,-0.128 0.084,-0.085 0.126,-0.188 0.126,-0.31 0,-0.119 -0.043,-0.22 -0.128,-0.306 C 0.221,-0.829 0.118,-0.872 0,-0.872 c -0.122,0 -0.225,0.043 -0.311,0.128 -0.085,0.086 -0.128,0.187 -0.128,0.306 0,0.122 0.043,0.225 0.128,0.31 C -0.225,-0.043 -0.122,0 0,0 m -0.946,-2.267 v 0.221 c 0.502,0.057 0.923,0.165 1.263,0.325 L 0.402,-1.782 C 0.382,-2.333 0.372,-2.753 0.372,-3.046 V -3.75 c 0.013,-0.672 0.021,-1.035 0.022,-1.089 0.003,-0.129 0.017,-0.223 0.043,-0.282 0.013,-0.025 0.03,-0.044 0.051,-0.061 0.02,-0.016 0.051,-0.03 0.093,-0.041 0.016,-0.003 0.158,-0.006 0.43,-0.011 v -0.221 c -0.393,0.019 -0.706,0.027 -0.942,0.027 -0.206,0 -0.545,-0.008 -1.015,-0.027 v 0.221 l 0.371,0.004 c 0.054,0.003 0.096,0.012 0.127,0.029 0.029,0.016 0.052,0.038 0.068,0.063 0.028,0.053 0.047,0.144 0.054,0.276 0,0.033 0.007,0.404 0.02,1.112 v 0.682 c 0,0.384 -0.013,0.613 -0.039,0.685 -0.015,0.039 -0.043,0.069 -0.083,0.087 -0.04,0.02 -0.213,0.029 -0.518,0.029"
                   style="fill:#000000;fill-opacity:1;fill-rule:nonzero;stroke:none"
                   id="path102" /></g><g
                 id="g104"
                 transform="translate(523.2733,813.0013)"><path
                   d="M 0,0 V 0.163 C 0.249,0.261 0.446,0.349 0.593,0.427 V 1.604 C 0.861,1.697 1.08,1.797 1.247,1.902 L 1.341,1.825 C 1.312,1.61 1.281,1.138 1.247,0.407 1.454,0.404 1.578,0.403 1.619,0.403 c 0.024,0 0.156,0.003 0.399,0.008 0.135,0.002 0.236,0.008 0.303,0.016 L 2.348,0.4 2.267,0.039 C 2.104,0.042 1.954,0.043 1.817,0.043 1.68,0.043 1.49,0.042 1.247,0.039 L 1.229,-1.538 c -0.008,-0.384 -0.005,-0.614 0.007,-0.689 0.013,-0.075 0.037,-0.14 0.074,-0.196 0.036,-0.056 0.083,-0.1 0.14,-0.133 0.058,-0.034 0.156,-0.06 0.295,-0.078 0.106,0 0.192,0.004 0.257,0.014 0.065,0.009 0.148,0.031 0.249,0.067 l 0.047,-0.15 C 2.176,-2.8 2.059,-2.898 1.945,-3.002 1.848,-3.038 1.756,-3.063 1.67,-3.073 1.586,-3.085 1.487,-3.091 1.377,-3.091 c -0.137,0 -0.246,0.015 -0.327,0.046 -0.081,0.031 -0.155,0.074 -0.223,0.13 -0.066,0.056 -0.123,0.126 -0.167,0.212 -0.045,0.085 -0.073,0.219 -0.087,0.402 0.003,0.176 0.008,0.368 0.016,0.577 0.003,0.042 0.004,0.087 0.004,0.136 V 0.021 H 0.435 C 0.305,0.021 0.16,0.014 0,0"
                   style="fill:#000000;fill-opacity:1;fill-rule:nonzero;stroke:none"
                   id="path106" /></g><g
                 id="g108"
                 transform="translate(525.8573,807.892)"><path
                   d="M 0,0 0.198,0.596 H 0.291 C 0.34,0.556 0.382,0.522 0.417,0.498 0.451,0.473 0.489,0.455 0.529,0.441 0.569,0.429 0.628,0.423 0.705,0.423 c 0.08,0 0.159,0.016 0.234,0.052 C 1.016,0.509 1.087,0.564 1.152,0.64 1.219,0.714 1.297,0.843 1.388,1.026 1.524,1.304 1.646,1.585 1.755,1.872 1.673,2.105 1.572,2.365 1.456,2.654 L 0.839,4.18 C 0.655,4.634 0.506,4.981 0.39,5.224 0.344,5.318 0.294,5.382 0.24,5.414 0.187,5.446 0.069,5.473 -0.114,5.493 v 0.221 c 0.32,-0.018 0.637,-0.028 0.95,-0.028 0.305,0 0.599,0.01 0.881,0.028 V 5.493 C 1.451,5.476 1.298,5.459 1.26,5.443 1.192,5.418 1.159,5.372 1.159,5.305 1.159,5.264 1.181,5.18 1.225,5.052 1.325,4.733 1.421,4.462 1.512,4.236 L 1.757,3.632 C 1.903,3.269 2.028,2.976 2.129,2.751 l 0.204,0.457 c 0.08,0.183 0.221,0.525 0.422,1.032 0.201,0.508 0.319,0.82 0.352,0.94 0.011,0.041 0.016,0.077 0.016,0.108 0,0.049 -0.02,0.087 -0.06,0.114 C 3.022,5.43 2.867,5.456 2.596,5.481 v 0.233 c 0.3,-0.018 0.564,-0.028 0.795,-0.028 0.232,0 0.462,0.01 0.688,0.028 L 4.041,5.481 C 3.909,5.477 3.808,5.448 3.735,5.396 3.663,5.345 3.554,5.171 3.407,4.875 3.262,4.58 2.991,3.998 2.596,3.13 L 1.7,1.038 C 1.557,0.7 1.431,0.458 1.325,0.313 1.22,0.169 1.093,0.06 0.945,-0.016 0.798,-0.09 0.637,-0.128 0.462,-0.128 c -0.086,0 -0.163,0.01 -0.231,0.029 C 0.162,-0.08 0.085,-0.047 0,0"
                   style="fill:#000000;fill-opacity:1;fill-rule:nonzero;stroke:none"
                   id="path110" /></g><g
                 id="g112"
                 transform="translate(533.0751,812.0355)"><path
                   d="m 0,0 c 0,-0.318 0.053,-0.642 0.159,-0.97 0.106,-0.328 0.259,-0.568 0.459,-0.719 0.2,-0.152 0.417,-0.227 0.652,-0.227 0.3,0 0.55,0.118 0.752,0.356 0.202,0.239 0.302,0.605 0.302,1.098 0,0.412 -0.059,0.767 -0.18,1.066 C 2.024,0.902 1.871,1.112 1.685,1.235 1.499,1.358 1.294,1.419 1.069,1.419 0.752,1.419 0.494,1.305 0.296,1.074 0.099,0.844 0,0.485 0,0 m -0.733,-0.287 c 0,0.579 0.185,1.052 0.552,1.417 0.368,0.366 0.84,0.549 1.416,0.549 0.543,0 0.985,-0.17 1.325,-0.512 C 2.901,0.826 3.072,0.386 3.072,-0.155 3.072,-0.532 2.984,-0.878 2.808,-1.19 2.633,-1.504 2.385,-1.748 2.064,-1.926 1.744,-2.102 1.392,-2.191 1.007,-2.191 c -0.299,0 -0.553,0.05 -0.761,0.151 -0.208,0.102 -0.377,0.228 -0.506,0.38 -0.129,0.153 -0.227,0.309 -0.294,0.47 -0.119,0.281 -0.179,0.582 -0.179,0.903"
                   style="fill:#000000;fill-opacity:1;fill-rule:nonzero;stroke:none"
                   id="path114" /></g><g
                 id="g116"
                 transform="translate(536.7049,812.9935)"><path
                   d="m 0,0 v 0.157 c 0.201,0.085 0.379,0.175 0.534,0.27 v 0.232 c 0,0.335 0.022,0.573 0.065,0.711 0.042,0.138 0.101,0.261 0.179,0.37 0.117,0.16 0.3,0.364 0.55,0.612 0.168,0.163 0.292,0.264 0.373,0.306 0.106,0.054 0.229,0.081 0.371,0.081 0.101,0 0.204,-0.016 0.31,-0.049 L 2.398,2.046 2.309,2.011 C 2.229,2.078 2.149,2.127 2.07,2.158 1.991,2.19 1.899,2.205 1.794,2.205 1.653,2.205 1.54,2.177 1.452,2.12 1.365,2.063 1.301,1.982 1.261,1.875 1.221,1.77 1.201,1.554 1.201,1.229 V 0.427 h 0.41 c 0.206,0 0.411,0.009 0.609,0.027 L 2.258,0.43 2.182,0.028 C 1.956,0.038 1.791,0.043 1.686,0.043 1.576,0.043 1.415,0.038 1.201,0.028 V -1.357 C 1.201,-1.528 1.207,-1.838 1.22,-2.29 1.223,-2.45 1.23,-2.552 1.239,-2.596 1.25,-2.64 1.264,-2.671 1.28,-2.69 1.297,-2.709 1.325,-2.726 1.363,-2.739 1.441,-2.762 1.649,-2.785 1.991,-2.809 v -0.22 c -0.601,0.018 -0.968,0.027 -1.1,0.027 -0.118,0 -0.451,-0.009 -0.995,-0.027 v 0.22 l 0.37,0.004 c 0.054,0.003 0.096,0.013 0.126,0.03 0.03,0.016 0.053,0.038 0.068,0.063 0.029,0.053 0.047,0.144 0.056,0.275 0,0.034 0.006,0.404 0.018,1.111 v 1.354 z"
                   style="fill:#000000;fill-opacity:1;fill-rule:nonzero;stroke:none"
                   id="path118" /></g><g
                 id="g120"
                 transform="translate(474.2376,815.8788)"><path
                   d="m 0,0 c -0.017,-0.456 -0.103,-2.862 -0.103,-2.862 -0.065,-1.678 -0.122,-3.151 -0.122,-4.462 0,-5.772 1.114,-8.399 7.534,-11.512 6.419,3.113 7.534,5.74 7.534,11.508 0,1.313 -0.057,2.788 -0.123,4.468 0,0 -0.085,2.404 -0.101,2.86 z"
                   style="fill:#ffffff;fill-opacity:1;fill-rule:nonzero;stroke:none"
                   id="path122" /></g><g
                 id="g124"
                 transform="translate(482.348,811.8954)"><path
                   d="m 0,0 -0.01,0.033 c 0.428,0.281 0.707,0.739 0.707,1.184 0,0.75 -0.683,1.361 -1.518,1.361 -0.83,0 -1.524,-0.611 -1.524,-1.361 0,-0.445 0.278,-0.903 0.707,-1.184 L -1.648,0 c -0.628,0.287 -1.085,0.879 -1.085,1.496 0,0.886 0.884,1.621 1.916,1.621 1.032,0 1.899,-0.735 1.899,-1.621 C 1.082,0.879 0.628,0.287 0,0 m -0.339,-0.074 -0.014,0.033 c 0,0 0.103,0.044 0.237,0.127 0.267,0.164 0.486,0.498 0.486,0.818 0,0.566 -0.526,1.024 -1.188,1.024 -0.66,0 -1.202,-0.458 -1.202,-1.024 0,-0.32 0.222,-0.654 0.484,-0.818 0.138,-0.083 0.241,-0.127 0.241,-0.127 l -0.014,-0.033 c 0,0 -0.114,0.042 -0.251,0.128 -0.463,0.282 -0.709,0.745 -0.709,1.163 0,0.709 0.659,1.286 1.448,1.286 0.792,0 1.443,-0.577 1.443,-1.286 0,-0.418 -0.25,-0.881 -0.709,-1.163 -0.138,-0.086 -0.252,-0.128 -0.252,-0.128 m 6.397,3.562 h -13.7 l -0.145,-3.82 H 6.214 Z"
                   style="fill:#e42313;fill-opacity:1;fill-rule:nonzero;stroke:none"
                   id="path126" /></g><g
                 id="g128"
                 transform="translate(479.4823,810.9301)"><path
                   d="m 0,0 -0.001,-2.117 c 0.11,-0.086 0.244,-0.119 0.388,-0.123 0.35,-0.012 0.768,0.148 1.132,0.148 0.2,0 0.386,-0.053 0.528,-0.207 0.144,0.154 0.319,0.207 0.52,0.207 0.362,0 0.786,-0.16 1.136,-0.148 0.143,0.004 0.273,0.037 0.386,0.123 L 4.089,0 C 3.991,-0.01 3.86,0.111 3.821,0.225 V -1.92 C 3.799,-1.936 3.639,-2.061 3.388,-2.065 3.121,-2.066 2.803,-1.941 2.513,-1.941 c -0.182,0 -0.319,-0.075 -0.434,-0.2 H 2.015 c 0,0 -0.171,0.2 -0.439,0.2 -0.28,0 -0.609,-0.129 -0.875,-0.129 -0.265,0 -0.408,0.138 -0.43,0.154 V 0.225 C 0.216,0.115 0.097,0.002 0,0"
                   style="fill:#e42313;fill-opacity:1;fill-rule:nonzero;stroke:none"
                   id="path130" /></g><g
                 id="g132"
                 transform="translate(481.3753,805.475)"><path
                   d="M 0,0 C -0.045,0.062 -0.056,0.166 -0.012,0.232 0.093,0.166 0.189,0.154 0.309,0.133 0.206,0.102 0.086,0.062 0,0 M 5.187,-2.866 C 5.212,-2.891 5.232,-2.911 5.253,-2.934 5.378,-3.079 5.304,-3.405 5.173,-3.483 5.23,-3.288 5.078,-3.133 4.882,-3.188 4.957,-3.229 5.001,-3.352 4.968,-3.469 4.937,-3.581 4.811,-3.684 4.687,-3.661 4.519,-3.629 4.612,-3.409 4.607,-3.268 4.601,-3.069 4.475,-2.975 4.381,-2.93 4.37,-2.924 4.379,-2.911 4.379,-2.911 c 0.066,-0.017 0.13,-0.045 0.22,-0.043 0.124,0 0.221,0.069 0.262,0.123 0.049,0.063 0.069,0.168 0.04,0.245 C 4.881,-2.62 4.851,-2.661 4.821,-2.688 4.751,-2.754 4.61,-2.764 4.508,-2.713 4.403,-2.665 4.302,-2.557 4.223,-2.454 3.952,-2.085 3.623,-1.71 3.285,-1.487 3.076,-1.35 2.8,-1.239 2.535,-1.231 2.375,-1.227 2.215,-1.26 2.076,-1.348 1.893,-1.465 1.781,-1.669 1.757,-1.862 1.73,-2.088 1.811,-2.315 1.948,-2.491 2.132,-2.727 2.39,-2.899 2.639,-3.057 2.821,-3.174 3,-3.299 3.17,-3.432 3.303,-3.538 3.416,-3.659 3.453,-3.831 3.491,-3.991 3.419,-4.102 3.356,-4.155 3.244,-4.25 2.94,-4.241 2.827,-4.147 2.756,-3.598 2.379,-3.358 1.889,-3.241 1.655,-3.184 1.408,-3.125 1.212,-3.018 1.036,-2.922 0.878,-2.825 0.799,-2.594 0.768,-2.602 0.686,-2.586 0.622,-2.561 0.479,-2.506 0.43,-2.409 0.403,-2.323 c 0.085,-0.086 0.159,-0.138 0.378,-0.148 0.132,-0.006 0.307,0.058 0.375,0.17 -0.136,-0.018 -0.243,-0.01 -0.323,0.037 -0.074,0.047 -0.147,0.15 -0.133,0.265 0.13,-0.136 0.373,-0.185 0.593,-0.078 0.029,0.014 0.13,0.09 0.134,0.123 -0.117,-0.011 -0.222,0.01 -0.291,0.069 -0.074,0.056 -0.117,0.144 -0.116,0.267 0.075,-0.076 0.212,-0.119 0.343,-0.113 0.133,0.006 0.256,0.059 0.302,0.166 C 1.564,-1.582 1.466,-1.561 1.387,-1.512 1.312,-1.465 1.258,-1.391 1.254,-1.299 1.125,-1.29 1.024,-1.233 0.961,-1.159 0.887,-1.264 0.863,-1.508 0.876,-1.674 0.669,-1.667 0.493,-1.524 0.462,-1.329 0.372,-1.43 0.358,-1.682 0.405,-1.823 c -0.247,0.016 -0.397,0.149 -0.456,0.354 -0.034,-0.075 -0.053,-0.174 -0.051,-0.284 10e-4,-0.029 0.007,-0.089 0.013,-0.134 0,0 -0.06,0.004 -0.145,0.064 -0.11,0.072 -0.208,0.256 -0.201,0.346 0.063,-0.098 0.145,-0.182 0.24,-0.242 -0.011,0.224 0.092,0.398 0.214,0.486 0.002,-0.244 0.079,-0.385 0.274,-0.436 -0.033,0.143 0.009,0.26 0.043,0.348 0.033,0.084 0.122,0.197 0.173,0.231 0.002,-0.198 0.095,-0.395 0.262,-0.44 -0.005,0.154 0.026,0.33 0.082,0.44 0.027,0.05 0.062,0.107 0.105,0.13 0.047,-0.158 0.249,-0.236 0.431,-0.242 0.492,-0.015 0.517,0.389 0.517,0.389 -0.066,-0.031 -0.155,-0.086 -0.32,-0.086 -0.201,0 -0.257,0.16 -0.257,0.16 0.116,-0.047 0.35,0.014 0.459,0.1 0.07,0.053 0.155,0.168 0.164,0.27 0.006,0.097 -0.016,0.187 -0.081,0.234 C 1.79,-0.348 1.322,-0.461 1.163,-0.246 1.338,-0.26 1.501,-0.182 1.561,-0.07 1.578,-0.043 1.595,0.045 1.581,0.084 1.581,0.084 1.453,0 1.285,-0.006 1.103,-0.014 1.004,0.06 1.004,0.06 1.125,0.068 1.357,0.191 1.34,0.342 1.34,0.342 1.266,0.314 1.214,0.31 1.079,0.297 0.912,0.312 0.822,0.379 0.826,0.4 0.876,0.746 0.836,0.789 0.684,0.719 0.54,0.607 0.455,0.461 0.364,0.475 0.255,0.488 0.13,0.486 0.004,0.484 -0.138,0.461 -0.204,0.426 -0.235,0.41 -0.29,0.371 -0.32,0.332 -0.355,0.291 -0.366,0.24 -0.403,0.217 -0.49,0.166 -0.635,0.146 -0.751,0.137 -0.841,0.127 -0.958,0.141 -0.987,0.07 c -0.03,-0.074 0.03,-0.115 0.058,-0.15 0.018,-0.027 0.038,-0.068 0.051,-0.104 0.012,-0.033 0.026,-0.088 0.044,-0.115 0.115,-0.184 0.229,-0.101 0.358,-0.062 0.139,0.049 0.329,0.097 0.498,0.097 0.1,0 0.208,-0.013 0.291,-0.068 C 0.388,-0.379 0.428,-0.485 0.424,-0.575 0.421,-0.657 0.386,-0.739 0.322,-0.792 0.29,-0.823 0.161,-0.897 -0.012,-0.897 c -0.212,0 -0.424,0.098 -0.609,0.102 -0.055,0.001 -0.111,-0.016 -0.13,-0.036 -0.06,-0.058 -0.06,-0.136 -0.008,-0.207 0.187,0.004 0.18,-0.207 0.154,-0.304 -0.091,-0.237 -0.277,-0.246 -0.365,-0.239 -0.109,0.012 -0.219,0.059 -0.268,0.116 -0.091,-0.268 0.091,-0.485 0.335,-0.496 -0.167,-0.139 -0.503,-0.03 -0.534,0.152 -0.025,-0.026 -0.044,-0.084 -0.047,-0.137 -0.022,-0.328 0.244,-0.461 0.576,-0.447 -0.194,-0.078 -0.442,-0.039 -0.668,0.027 -0.205,0.059 -0.321,0.113 -0.462,0.184 -0.175,0.084 -0.359,0.234 -0.45,0.394 -0.03,0.055 -0.062,0.153 -0.057,0.223 0.014,0.25 0.301,0.283 0.263,0.57 -0.201,0.061 -0.403,-0.037 -0.463,-0.23 -0.017,-0.053 -0.023,-0.111 -0.016,-0.18 -0.072,0.063 -0.145,0.147 -0.222,0.213 -0.064,0.059 -0.132,0.094 -0.207,0.088 -0.005,0 -0.02,-0.061 -0.071,-0.125 -0.019,-0.021 -0.098,-0.092 -0.098,-0.092 0.003,-0.045 0.045,-0.096 0.062,-0.109 0.063,-0.057 0.186,-0.088 0.237,-0.17 0.016,-0.025 0.022,-0.057 0.02,-0.094 -0.056,-0.017 -0.106,-0.016 -0.151,-0.006 -0.155,0.037 -0.271,0.174 -0.449,0.184 -0.074,0.006 -0.148,-0.008 -0.183,-0.059 0.048,-0.062 0.039,-0.189 -0.006,-0.265 0.029,-0.063 0.088,-0.09 0.155,-0.098 0.101,-0.012 0.223,0.008 0.321,-0.006 0.051,-0.004 0.096,-0.019 0.126,-0.053 -0.058,-0.041 -0.104,-0.07 -0.17,-0.085 -0.141,-0.032 -0.31,0.074 -0.431,0.007 0,0 0.028,-0.056 0.007,-0.123 -0.016,-0.06 -0.046,-0.117 -0.046,-0.117 0.062,-0.057 0.128,-0.078 0.192,-0.08 0.13,-0.002 0.264,0.076 0.392,0.123 0.061,0.022 0.118,0.039 0.174,0.039 -0.103,-0.135 -0.267,-0.264 -0.458,-0.281 -0.026,-0.002 -0.06,-0.002 -0.06,-0.002 0.002,-0.022 0.049,-0.045 0.064,-0.053 0.043,-0.021 0.113,-0.041 0.173,-0.043 0.256,-0.012 0.466,0.076 0.643,0.178 -0.079,-0.16 -0.223,-0.252 -0.406,-0.307 0.017,-0.025 0.062,-0.031 0.099,-0.037 0.394,-0.064 0.748,0.201 0.748,0.201 -0.008,-0.074 -0.065,-0.185 -0.191,-0.263 -0.065,-0.039 -0.137,-0.049 -0.137,-0.049 0.054,-0.057 0.2,-0.063 0.298,-0.053 0.114,0.008 0.247,0.057 0.361,0.078 0.18,0.033 0.289,0.026 0.398,0.049 -0.121,-0.049 -0.248,-0.096 -0.377,-0.146 -0.157,-0.057 -0.303,-0.133 -0.441,-0.208 -0.145,-0.08 -0.27,-0.183 -0.408,-0.251 -0.147,-0.075 -0.318,-0.041 -0.386,0.076 -0.033,0.058 -0.03,0.121 -0.044,0.183 -0.033,0.147 -0.143,0.27 -0.309,0.268 -0.012,-0.127 -0.12,-0.209 -0.173,-0.246 0.022,-0.231 0.319,-0.227 0.352,-0.463 -0.025,-0.016 -0.082,-0.024 -0.138,-0.006 -0.123,0.037 -0.202,0.084 -0.317,0.086 -0.064,0.002 -0.127,-0.012 -0.184,-0.049 0.023,-0.023 0.041,-0.051 0.051,-0.09 0.018,-0.072 -0.005,-0.154 -0.038,-0.205 0.044,-0.047 0.101,-0.06 0.165,-0.06 0.107,0 0.232,0.041 0.327,0.047 0.058,0.004 0.126,0.005 0.178,-0.022 -0.06,-0.148 -0.278,-0.137 -0.443,-0.178 C -3.84,-4.1 -3.905,-4.133 -3.938,-4.2 c 0.113,-0.037 0.191,-0.119 0.183,-0.275 0.057,-0.002 0.105,0.01 0.15,0.027 0.142,0.063 0.226,0.217 0.367,0.266 -0.004,-0.156 -0.101,-0.246 -0.125,-0.383 -0.007,-0.043 -0.006,-0.088 0.005,-0.142 0,0 0.071,0.031 0.146,0.031 0.067,-0.004 0.103,-0.024 0.14,-0.045 0.039,0.035 0.061,0.086 0.075,0.14 0.023,0.104 0.016,0.227 0.02,0.328 0.01,0.057 0.008,0.081 0.051,0.088 0.196,0 0.403,0.108 0.48,0.192 -0.033,-0.123 -0.074,-0.194 -0.144,-0.274 -0.023,-0.025 -0.077,-0.078 -0.098,-0.095 0.12,-0.018 0.242,0.017 0.338,0.08 0.201,0.131 0.374,0.301 0.458,0.513 0.024,-0.091 0.017,-0.201 -0.014,-0.291 -0.022,-0.064 -0.063,-0.129 -0.091,-0.16 0.032,-0.007 0.097,0.006 0.137,0.022 0.147,0.064 0.254,0.191 0.333,0.353 0.039,0.082 0.079,0.192 0.094,0.293 0.084,-0.088 0.103,-0.236 0.04,-0.4 -0.014,-0.035 -0.038,-0.071 -0.044,-0.08 0.098,0.009 0.174,0.078 0.242,0.142 0.114,0.112 0.216,0.33 0.192,0.526 0.11,-0.096 0.139,-0.356 0.072,-0.5 0.096,0.027 0.178,0.09 0.247,0.162 0.079,0.084 0.127,0.15 0.175,0.307 0.045,0.15 0.014,0.255 0.014,0.255 0.023,-0.017 0.051,-0.07 0.063,-0.117 0.042,-0.191 -0.011,-0.41 -0.17,-0.562 -0.028,-0.026 -0.08,-0.067 -0.088,-0.071 0.108,-0.144 0.297,-0.203 0.509,-0.213 0.356,-0.019 0.566,0.131 0.898,0.166 -0.138,-0.062 -0.263,-0.144 -0.346,-0.181 -0.193,-0.09 -0.367,-0.149 -0.519,-0.143 -0.089,0.004 -0.191,0.002 -0.282,0.049 -0.067,-0.08 -0.08,-0.176 -0.066,-0.311 0.02,-0.179 0.119,-0.296 0.074,-0.482 -0.092,-0.346 -0.706,-0.293 -0.934,-0.125 -0.185,0.139 -0.17,0.463 -0.336,0.604 -0.05,0.041 -0.114,0.064 -0.204,0.064 -0.032,-0.105 -0.104,-0.17 -0.188,-0.227 0.012,-0.066 0.045,-0.113 0.083,-0.152 0.067,-0.072 0.164,-0.119 0.221,-0.205 0.024,-0.033 0.043,-0.074 0.049,-0.129 -0.061,-0.002 -0.115,0.012 -0.163,0.035 -0.125,0.061 -0.217,0.184 -0.361,0.215 -0.05,0.012 -0.107,0.01 -0.177,-0.008 0.026,-0.072 -0.018,-0.189 -0.085,-0.242 0.052,-0.14 0.195,-0.22 0.38,-0.23 0.103,-0.006 0.222,0.004 0.283,-0.072 -0.144,-0.155 -0.371,-0.003 -0.57,-0.003 -0.054,0 -0.105,-0.011 -0.155,-0.043 0.009,-0.011 0.034,-0.06 0.037,-0.107 0.007,-0.068 -0.04,-0.164 -0.04,-0.164 0.005,-0.057 0.121,-0.086 0.183,-0.094 0.044,-0.006 0.096,-0.002 0.137,0.006 0.146,0.024 0.306,0.129 0.457,0.115 0.022,-0.002 0.06,-0.011 0.069,-0.031 -0.047,-0.119 -0.168,-0.135 -0.239,-0.211 -0.026,-0.027 -0.047,-0.064 -0.055,-0.115 0.124,0.031 0.166,-0.02 0.227,-0.096 0.057,-0.006 0.105,0.01 0.144,0.039 0.076,0.059 0.129,0.182 0.179,0.241 0.019,0.023 0.036,0.058 0.079,0.05 0.023,-0.004 0.051,-0.054 0.08,-0.09 0.104,-0.132 0.286,-0.238 0.515,-0.21 0.065,0.007 0.134,0.037 0.177,0.088 -0.146,0.023 -0.25,0.124 -0.298,0.257 0.128,-0.092 0.35,-0.172 0.533,-0.14 0.025,0.004 0.081,0.023 0.091,0.045 -0.143,0.037 -0.258,0.179 -0.206,0.355 0.065,-0.109 0.199,-0.209 0.357,-0.223 0.051,-0.004 0.111,-0.006 0.156,0.028 -0.025,0.023 -0.057,0.05 -0.073,0.088 -0.02,0.039 -0.03,0.095 -0.024,0.144 0.018,0.129 0.196,0.164 0.312,0.178 0.149,0.018 0.311,-0.018 0.445,0.035 0.096,0.039 0.181,0.111 0.173,0.215 -0.049,-0.037 -0.117,-0.069 -0.202,-0.061 -0.13,0.012 -0.17,0.121 -0.17,0.2 0,0.154 0.094,0.23 0.278,0.244 0.082,0.004 0.211,-0.018 0.285,-0.049 -0.003,0.002 0.122,-0.045 0.122,-0.041 -0.053,0.105 0.006,0.289 0.04,0.373 0.064,0.146 0.135,0.228 0.173,0.361 C 1.372,-4.1 1.376,-4.129 1.372,-4.161 1.357,-4.311 1.296,-4.401 1.278,-4.571 1.269,-4.661 1.305,-4.79 1.382,-4.852 1.532,-4.967 1.768,-5.01 1.849,-5.202 1.908,-5.35 1.849,-5.479 1.777,-5.573 1.673,-5.721 1.516,-5.844 1.342,-5.926 1.295,-5.95 1.209,-5.989 1.125,-5.961 0.975,-5.913 0.92,-5.629 0.786,-5.538 0.735,-5.504 0.671,-5.495 0.599,-5.51 0.591,-5.563 0.579,-5.586 0.544,-5.631 0.521,-5.661 0.464,-5.7 0.465,-5.706 0.472,-5.764 0.51,-5.819 0.529,-5.836 0.602,-5.903 0.753,-5.944 0.786,-6.034 0.77,-6.057 0.734,-6.063 0.703,-6.065 0.541,-6.071 0.464,-5.924 0.311,-5.913 0.275,-5.909 0.208,-5.913 0.172,-5.94 0.18,-5.985 0.177,-6.003 0.166,-6.04 0.15,-6.086 0.138,-6.102 0.116,-6.135 0.143,-6.256 0.349,-6.268 0.516,-6.284 0.564,-6.288 0.62,-6.295 0.644,-6.331 0.601,-6.368 0.548,-6.401 0.488,-6.413 0.365,-6.434 0.253,-6.366 0.135,-6.356 0.094,-6.354 0.043,-6.368 0,-6.395 0.011,-6.42 0.017,-6.479 0.006,-6.526 -0.006,-6.582 -0.01,-6.612 -0.027,-6.633 c 0.02,-0.02 0.079,-0.053 0.144,-0.055 0.167,-0.006 0.307,0.131 0.482,0.066 C 0.53,-6.729 0.409,-6.735 0.308,-6.797 0.269,-6.825 0.224,-6.868 0.199,-6.917 c 0.037,-0.017 0.067,-0.043 0.09,-0.074 0.019,-0.031 0.034,-0.062 0.04,-0.111 0.209,-0.016 0.307,0.125 0.406,0.236 0.147,0.16 0.355,0.264 0.637,0.285 0.307,0.022 0.701,-0.125 0.84,0.139 -0.17,0.008 -0.372,0.041 -0.433,0.158 0.3,-0.086 0.669,-0.002 0.821,0.188 -0.206,-0.039 -0.419,0.01 -0.5,0.138 0.229,-0.06 0.48,-0.025 0.655,0.08 0.117,0.071 0.243,0.176 0.274,0.307 C 3.012,-5.573 2.977,-5.59 2.947,-5.604 2.799,-5.669 2.541,-5.657 2.48,-5.538 c 0.133,-0.007 0.254,0.016 0.347,0.067 0.129,0.072 0.195,0.179 0.238,0.254 0.05,0.093 0.097,0.189 0.165,0.267 0.025,0.031 0.058,0.049 0.083,0.059 -0.021,0.025 -0.077,0.029 -0.115,0.021 -0.189,-0.035 -0.271,-0.209 -0.447,-0.246 0.066,0.186 0.096,0.434 0.1,0.649 0.359,-0.139 0.675,-0.032 0.835,0.185 0.096,0.131 0.121,0.291 0.121,0.403 0,0.224 -0.121,0.39 -0.234,0.513 C 3.36,-3.137 3.092,-2.971 2.836,-2.795 2.661,-2.674 2.48,-2.549 2.332,-2.413 2.226,-2.317 2.111,-2.184 2.084,-2.022 2.046,-1.78 2.193,-1.594 2.358,-1.544 2.899,-1.379 3.452,-1.963 3.712,-2.27 3.771,-2.338 3.987,-2.588 3.901,-2.753 3.876,-2.797 3.813,-2.823 3.768,-2.819 3.692,-2.811 3.629,-2.739 3.684,-2.622 3.542,-2.655 3.482,-2.866 3.566,-2.983 c 0.06,-0.09 0.164,-0.102 0.242,-0.088 0.068,0.012 0.131,0.053 0.164,0.106 -0.097,-0.289 0.014,-0.594 0.157,-0.752 0.172,-0.192 0.415,-0.235 0.519,-0.243 0.267,-0.015 0.534,0.049 0.706,0.27 0.118,0.15 0.176,0.371 0.118,0.565 -0.041,0.136 -0.164,0.249 -0.285,0.259"
                   style="fill:#e42313;fill-opacity:1;fill-rule:nonzero;stroke:none"
                   id="path134" /></g><g
                 id="g136"
                 transform="translate(485.5516,813.4393)"><path
                   d="m 0,0 0.897,1.005 0.882,-1.023 -0.867,-1 z m 0.905,1.699 -1.511,-1.702 1.511,-1.703 1.477,1.703 z"
                   style="fill:#ffed00;fill-opacity:1;fill-rule:nonzero;stroke:none"
                   id="path138" /></g><g
                 id="g140"
                 transform="translate(476.7811,812.4208)"><path
                   d="M 0,0 -0.911,1.018 -0.014,2.023 0.869,1.001 Z M -1.519,1.016 -0.006,-0.687 1.47,1.016 -0.006,2.718 Z"
                   style="fill:#ffed00;fill-opacity:1;fill-rule:nonzero;stroke:none"
                   id="path142" /></g><g
                 id="g144"
                 transform="translate(478.5257,799.6307)"><path
                   d="M 0,0 C 0.149,0.145 0.267,0.07 0.267,0.07 0.337,0.143 0.326,0.301 0.271,0.342 0.123,0.303 -0.004,0.191 0,0"
                   style="fill:#004b93;fill-opacity:1;fill-rule:nonzero;stroke:none"
                   id="path146" /></g><g
                 id="g148"
                 transform="translate(478.0169,800.7676)"><path
                   d="M 0,0 C 0,0 0.013,-0.18 0.137,-0.289 0.173,-0.322 0.224,-0.358 0.284,-0.356 0.212,-0.268 0.233,-0.115 0.286,-0.014 0.221,0.047 0.078,0.047 0,0"
                   style="fill:#004b93;fill-opacity:1;fill-rule:nonzero;stroke:none"
                   id="path150" /></g><g
                 id="g152"
                 transform="translate(478.1854,804.371)"><path
                   d="m 0,0 c -0.207,0.057 -0.421,-0.057 -0.477,-0.213 0,0 0.162,0.065 0.308,-0.004 0,0 0.145,0.088 0.169,0.217"
                   style="fill:#004b93;fill-opacity:1;fill-rule:nonzero;stroke:none"
                   id="path154" /></g><g
                 id="g156"
                 transform="translate(479.4789,801.0331)"><path
                   d="M 0,0 C -0.126,0.041 -0.288,0.016 -0.387,-0.033 -0.476,-0.078 -0.535,-0.148 -0.535,-0.148 -0.3,-0.125 -0.187,-0.227 -0.187,-0.227 -0.116,-0.211 0.009,-0.098 0,0"
                   style="fill:#004b93;fill-opacity:1;fill-rule:nonzero;stroke:none"
                   id="path158" /></g><g
                 id="g160"
                 transform="translate(478.5311,800.3182)"><path
                   d="M 0,0 C 0,0 0.071,0.029 0.177,0.027 0.259,0.025 0.327,0.002 0.327,0.002 0.392,0.033 0.461,0.174 0.413,0.244 0.217,0.234 0.047,0.137 0,0"
                   style="fill:#004b93;fill-opacity:1;fill-rule:nonzero;stroke:none"
                   id="path162" /></g><g
                 id="g164"
                 transform="translate(478.7879,804.4393)"><path
                   d="M 0,0 C 0.08,0.049 0.194,0.062 0.305,0.041 0.298,0.105 0.214,0.168 0.173,0.186 0.076,0.233 0.016,0.252 -0.099,0.25 -0.181,0.246 -0.228,0.221 -0.228,0.221 -0.143,0.17 -0.031,0.115 0,0"
                   style="fill:#004b93;fill-opacity:1;fill-rule:nonzero;stroke:none"
                   id="path166" /></g><g
                 id="g168"
                 transform="translate(477.3734,801.9042)"><path
                   d="m 0,0 c 0,0 -0.106,-0.025 -0.218,-0.154 -0.048,-0.055 -0.104,-0.161 -0.082,-0.248 0,0 0.061,0.068 0.169,0.099 0.062,0.02 0.111,0.018 0.144,0.008 C 0.071,-0.262 0.1,-0.062 0,0"
                   style="fill:#004b93;fill-opacity:1;fill-rule:nonzero;stroke:none"
                   id="path170" /></g><g
                 id="g172"
                 transform="translate(479.3451,799.371)"><path
                   d="m 0,0 c 0,0 -0.07,-0.264 0.117,-0.344 0,0 -0.033,0.139 0.11,0.248 C 0.189,-0.01 0.08,0.045 0,0"
                   style="fill:#004b93;fill-opacity:1;fill-rule:nonzero;stroke:none"
                   id="path174" /></g><g
                 id="g176"
                 transform="translate(477.3202,802.3788)"><path
                   d="M 0,0 C 0.103,0.018 0.261,0.027 0.34,-0.043 0.467,0.025 0.529,0.152 0.514,0.203 0.497,0.213 0.422,0.215 0.401,0.215 0.188,0.219 0.065,0.125 0,0"
                   style="fill:#004b93;fill-opacity:1;fill-rule:nonzero;stroke:none"
                   id="path178" /></g><g
                 id="g180"
                 transform="translate(481.5292,808.3812)"><path
                   d="m 0,0 c 0.25,0 0.357,0.213 0.357,0.213 0.351,-0.006 1.92,0 1.92,0 L 2.272,2.483 H 2.03 L 2.031,0.441 c 0,0 -0.127,-0.119 -0.417,-0.119 -0.346,0 -0.74,0.149 -1.092,0.149 C 0.174,0.471 0.037,0.299 0,0.27 c 0,0 -0.177,0.201 -0.511,0.201 -0.347,0 -0.76,-0.143 -1.166,-0.143 -0.212,0 -0.331,0.102 -0.362,0.113 l 0.003,2.042 h -0.232 v -2.27 h 1.907 C -0.361,0.213 -0.263,0 0,0"
                   style="fill:#004b93;fill-opacity:1;fill-rule:nonzero;stroke:none"
                   id="path182" /></g><g
                 id="g184"
                 transform="translate(477.5082,803.16)"><path
                   d="m 0,0 c 0,0 0.105,0.143 0.039,0.24 -0.206,-0.021 -0.336,-0.135 -0.4,-0.271 0,0 0.193,0.072 0.361,0.031"
                   style="fill:#004b93;fill-opacity:1;fill-rule:nonzero;stroke:none"
                   id="path186" /></g><g
                 id="g188"
                 transform="translate(477.4378,801.2753)"><path
                   d="m 0,0 c -0.076,-0.078 -0.144,-0.225 -0.113,-0.381 0.015,-0.074 0.071,-0.109 0.071,-0.109 0.019,0.095 0.096,0.203 0.225,0.215 C 0.214,-0.103 0.065,0 0,0"
                   style="fill:#004b93;fill-opacity:1;fill-rule:nonzero;stroke:none"
                   id="path190" /></g><g
                 id="g192"
                 transform="translate(477.5467,803.6346)"><path
                   d="M 0,0 C 0,0 0.104,0.15 0.006,0.266 -0.151,0.23 -0.282,0.107 -0.307,-0.07 c 0,0 0.054,0.037 0.109,0.054 C -0.116,0.012 -0.045,0.006 0,0"
                   style="fill:#004b93;fill-opacity:1;fill-rule:nonzero;stroke:none"
                   id="path194" /></g><g
                 id="g196"
                 transform="translate(481.0209,798.7675)"><path
                   d="M 0,0 C 0,0 0.045,0.039 0.119,0.068 0.172,0.094 0.272,0.107 0.327,0.074 0.376,0.1 0.395,0.279 0.354,0.313 0.2,0.297 0.019,0.172 0,0"
                   style="fill:#004b93;fill-opacity:1;fill-rule:nonzero;stroke:none"
                   id="path198" /></g><g
                 id="g200"
                 transform="translate(481.6034,799.7889)"><path
                   d="M 0,0 C 0.07,0.025 0.175,0.033 0.237,-0.02 0.316,0.031 0.374,0.102 0.371,0.176 0.214,0.221 0.027,0.154 0,0"
                   style="fill:#004b93;fill-opacity:1;fill-rule:nonzero;stroke:none"
                   id="path202" /></g><g
                 id="g204"
                 transform="translate(481.5746,798.5585)"><path
                   d="m 0,0 c -0.068,-0.053 -0.177,-0.221 -0.156,-0.354 0.011,-0.064 0.064,-0.097 0.064,-0.097 0.027,0.117 0.131,0.228 0.221,0.265 C 0.147,-0.117 0.053,-0.002 0,0"
                   style="fill:#004b93;fill-opacity:1;fill-rule:nonzero;stroke:none"
                   id="path206" /></g><g
                 id="g208"
                 transform="translate(481.0726,804.7637)"><path
                   d="M 0,0 C -0.019,-0.029 -0.046,-0.098 -0.074,-0.133 -0.033,-0.145 0.032,-0.162 0.065,-0.158 0.044,-0.119 0.019,-0.035 0,0"
                   style="fill:#004b93;fill-opacity:1;fill-rule:nonzero;stroke:none"
                   id="path210" /></g><g
                 id="g212"
                 transform="translate(481.5296,804.7948)"><path
                   d="m 0,0 c -0.025,-0.053 -0.038,-0.16 -0.063,-0.215 0.053,-0.012 0.111,0.033 0.15,0.053 C 0.059,-0.115 0.027,-0.049 0,0"
                   style="fill:#004b93;fill-opacity:1;fill-rule:nonzero;stroke:none"
                   id="path214" /></g><g
                 id="g216"
                 transform="translate(481.5311,807.0825)"><path
                   d="m 0,0 6.457,-3.789 c 0.741,1.99 0.728,4.467 0.603,7.951 z"
                   style="fill:#004b93;fill-opacity:1;fill-rule:nonzero;stroke:none"
                   id="path218" /></g><g
                 id="g220"
                 transform="translate(475.1024,803.293)"><path
                   d="M 0,0 6.429,3.789 -0.603,7.917 C -0.728,4.452 -0.738,1.987 0,0"
                   style="fill:#004b93;fill-opacity:1;fill-rule:nonzero;stroke:none"
                   id="path222" /></g><g
                 id="g224"
                 transform="translate(481.5462,797.043)"><path
                   d="m 0,0 c -6.419,3.113 -7.534,5.74 -7.534,11.512 0,1.311 0.057,2.783 0.123,4.462 0,0 0.086,2.406 0.102,2.862 H 7.311 C 7.327,18.38 7.412,15.975 7.412,15.975 7.478,14.295 7.535,12.821 7.535,11.508 7.535,5.74 6.419,3.113 0,0 M 7.919,15.958 7.8,19.331 -7.8,19.333 -7.919,15.954 C -8.271,6.883 -8.404,3.488 -0.12,-0.494 L 0,-0.553 0.123,-0.494 c 8.283,3.982 8.15,7.377 7.796,16.452"
                   style="fill:#004b93;fill-opacity:1;fill-rule:nonzero;stroke:none"
                   id="path226" /></g><g
                 id="g228"
                 transform="translate(481.0956,805.1742)"><path
                   d="M 0,0 C 0.019,-0.041 0.054,-0.157 0.056,-0.157 0.08,-0.105 0.118,-0.031 0.141,0.025 0.091,0.025 0.034,0.014 0,0"
                   style="fill:#004b93;fill-opacity:1;fill-rule:nonzero;stroke:none"
                   id="path230" /></g><g
                 id="g232"
                 transform="translate(481.2264,804.578)"><path
                   d="M 0,0 C 0.051,-0.01 0.1,-0.025 0.147,-0.016 0.123,0.033 0.083,0.137 0.07,0.186 0.059,0.135 0.013,0.037 0,0"
                   style="fill:#004b93;fill-opacity:1;fill-rule:nonzero;stroke:none"
                   id="path234" /></g><g
                 id="g236"
                 transform="translate(480.8675,805.1078)"><path
                   d="M 0,0 C 0,0 0.056,-0.088 0.073,-0.126 L 0.125,0.041 C 0.096,0.041 0.032,0.016 0,0"
                   style="fill:#004b93;fill-opacity:1;fill-rule:nonzero;stroke:none"
                   id="path238" /></g><g
                 id="g240"
                 transform="translate(481.3207,805.2095)"><path
                   d="m 0,0 c 0,0 0.051,-0.121 0.071,-0.171 0.021,0.052 0.072,0.118 0.097,0.169 C 0.116,0.012 0.055,0.016 0,0"
                   style="fill:#004b93;fill-opacity:1;fill-rule:nonzero;stroke:none"
                   id="path242" /></g><g
                 id="g244"
                 transform="translate(481.1629,799.328)"><path
                   d="M 0,0 C 0.061,0.045 0.217,0.08 0.328,0.012 0.363,0.029 0.414,0.143 0.385,0.207 0.212,0.26 0.037,0.145 0,0"
                   style="fill:#004b93;fill-opacity:1;fill-rule:nonzero;stroke:none"
                   id="path246" /></g><g
                 id="g248"
                 transform="translate(481.7044,804.9862)"><path
                   d="m 0,0 c -0.062,0.01 -0.152,0.006 -0.229,-0.008 -0.264,-0.043 -0.592,-0.09 -0.799,-0.076 -0.168,0.012 -0.406,0.066 -0.409,0.297 -0.002,0.086 0.044,0.166 0.044,0.166 -0.095,-0.019 -0.212,-0.138 -0.198,-0.291 0.017,-0.184 0.181,-0.289 0.506,-0.299 0.267,-0.01 0.623,0.072 0.849,0.125 C -0.076,-0.047 0,0 0,0"
                   style="fill:#004b93;fill-opacity:1;fill-rule:nonzero;stroke:none"
                   id="path250" /></g><g
                 id="g252"
                 transform="translate(479.8001,809.0375)"><path
                   d="M 0,0 V 2.008 C 0.25,1.848 0.543,1.91 0.819,1.978 1.144,2.059 1.447,2.135 1.7,1.855 V -0.178 C 1.433,0.068 1.113,0.012 0.804,-0.059 0.511,-0.125 0.238,-0.186 0,0 m 1.756,1.861 c 0.25,0.258 0.555,0.198 0.88,0.117 0.277,-0.068 0.565,-0.13 0.813,0.03 v -2.01 C 3.225,-0.164 2.941,-0.125 2.652,-0.059 2.344,0.012 2.028,0.068 1.756,-0.176 Z m -0.498,-1.91 c 0.268,0 0.439,-0.199 0.439,-0.199 h 0.064 c 0.115,0.125 0.253,0.199 0.434,0.199 0.29,0 0.608,-0.125 0.875,-0.123 0.251,0.004 0.412,0.129 0.433,0.145 V 2.117 L 3.454,2.08 C 3.218,1.894 2.94,1.961 2.651,2.033 2.33,2.113 2.007,2.185 1.729,1.904 1.452,2.182 1.12,2.113 0.805,2.033 0.511,1.961 0.238,1.894 0,2.08 l -0.047,0.037 v -2.14 c 0.023,-0.016 0.166,-0.155 0.43,-0.155 0.267,0 0.596,0.129 0.875,0.129"
                   style="fill:#004b93;fill-opacity:1;fill-rule:nonzero;stroke:none"
                   id="path254" /></g><g
                 id="g256"
                 transform="translate(480.6175,809.9808)"><path
                   d="m 0,0 c 0.274,0.068 0.536,0.133 0.768,-0.021 v 0.07 C 0.526,0.19 0.25,0.123 -0.015,0.057 -0.259,-0.004 -0.492,-0.06 -0.697,0.029 V -0.033 C -0.48,-0.117 -0.237,-0.057 0,0"
                   style="fill:#004b93;fill-opacity:1;fill-rule:nonzero;stroke:none"
                   id="path258" /></g><g
                 id="g260"
                 transform="translate(480.6175,810.5121)"><path
                   d="m 0,0 c 0.274,0.07 0.536,0.135 0.768,-0.019 v 0.07 C 0.526,0.193 0.25,0.125 -0.015,0.059 -0.259,-0.004 -0.492,-0.059 -0.697,0.029 v -0.06 C -0.48,-0.115 -0.237,-0.055 0,0"
                   style="fill:#004b93;fill-opacity:1;fill-rule:nonzero;stroke:none"
                   id="path262" /></g><g
                 id="g264"
                 transform="translate(481.3851,809.4222)"><path
                   d="M 0,0 V 0.068 C -0.241,0.209 -0.517,0.145 -0.783,0.076 -1.026,0.018 -1.259,-0.039 -1.464,0.051 V -0.01 c 0.217,-0.086 0.46,-0.027 0.696,0.031 C -0.494,0.09 -0.232,0.156 0,0"
                   style="fill:#004b93;fill-opacity:1;fill-rule:nonzero;stroke:none"
                   id="path266" /></g><g
                 id="g268"
                 transform="translate(482.4349,809.9808)"><path
                   d="M 0,0 C 0.236,-0.057 0.474,-0.117 0.696,-0.033 V 0.029 C 0.487,-0.06 0.259,-0.004 0.014,0.057 -0.249,0.123 -0.527,0.19 -0.767,0.049 v -0.07 C -0.54,0.133 -0.274,0.068 0,0"
                   style="fill:#004b93;fill-opacity:1;fill-rule:nonzero;stroke:none"
                   id="path270" /></g><g
                 id="g272"
                 transform="translate(482.4349,810.5121)"><path
                   d="m 0,0 c 0.236,-0.055 0.474,-0.115 0.696,-0.031 v 0.06 C 0.487,-0.059 0.259,-0.004 0.014,0.059 -0.249,0.125 -0.527,0.193 -0.767,0.051 v -0.07 C -0.54,0.135 -0.274,0.07 0,0"
                   style="fill:#004b93;fill-opacity:1;fill-rule:nonzero;stroke:none"
                   id="path274" /></g><g
                 id="g276"
                 transform="translate(482.4349,809.4437)"><path
                   d="m 0,0 c 0.236,-0.059 0.474,-0.117 0.696,-0.031 v 0.06 C 0.487,-0.06 0.258,-0.004 0.014,0.055 -0.25,0.123 -0.527,0.187 -0.767,0.047 V -0.021 C -0.54,0.135 -0.274,0.068 0,0"
                   style="fill:#004b93;fill-opacity:1;fill-rule:nonzero;stroke:none"
                   id="path278" /></g></g></g></g></g></g></g></svg>
